<?xml version="1.0" encoding="UTF-8" standalone="no"?>
<svg xmlns="http://www.w3.org/2000/svg" version="1.1" viewBox="0.00 0.00 2519.00 1248.00">
  <g stroke-width="2.00" fill="none" stroke-linecap="butt">
    <path stroke="#806820" vector-effect="non-scaling-stroke" d="   M 674.91 441.79   L 667.17 441.74"></path>
    <path stroke="#132264" vector-effect="non-scaling-stroke" d="   M 676.37 442.20   Q 679.13 443.22 681.78 444.32   Q 682.94 444.80 684.67 445.85   Q 686.06 446.71 687.56 447.41"></path>
    <path stroke="#132264" vector-effect="non-scaling-stroke" d="   M 690.90 450.80   L 695.49 458.27"></path>
    <path stroke="#132264" vector-effect="non-scaling-stroke" d="   M 695.97 458.89   Q 695.59 460.12 696.41 461.04"></path>
    <path stroke="#132264" vector-effect="non-scaling-stroke" d="   M 696.53 461.20   L 697.20 466.21"></path>
    <path stroke="#806820" vector-effect="non-scaling-stroke" d="   M 697.20 466.21   L 697.32 650.96"></path>
    <path stroke="#132264" vector-effect="non-scaling-stroke" d="   M 696.40 669.22   Q 695.16 670.71 695.86 674.01"></path>
    <path stroke="#806820" vector-effect="non-scaling-stroke" d="   M 695.42 676.49   Q 694.48 678.16 694.82 680.25"></path>
    <path stroke="#806820" vector-effect="non-scaling-stroke" d="   M 694.71 681.29   L 691.76 692.54"></path>
    <path stroke="#806820" vector-effect="non-scaling-stroke" d="   M 691.48 693.20   L 683.57 710.20"></path>
    <path stroke="#806820" vector-effect="non-scaling-stroke" d="   M 683.38 710.67   Q 680.50 714.82 677.88 719.12   Q 674.77 724.24 665.19 734.16   Q 665.11 734.24 665.11 734.35   Q 665.11 734.40 665.10 734.45"></path>
    <path stroke="#132264" vector-effect="non-scaling-stroke" d="   M 664.72 734.72   Q 655.75 742.79 645.63 749.34   Q 643.82 750.51 640.17 752.30   Q 637.41 753.65 634.72 755.31"></path>
    <path stroke="#132264" vector-effect="non-scaling-stroke" d="   M 634.25 755.63   Q 634.31 755.48 634.12 755.41   Q 634.01 755.37 633.90 755.42   L 627.69 758.31"></path>
    <path stroke="#132264" vector-effect="non-scaling-stroke" d="   M 608.71 763.58   L 598.31 764.99"></path>
    <path stroke="#806820" vector-effect="non-scaling-stroke" d="   M 595.15 765.25   Q 588.88 764.44 582.65 765.22"></path>
    <path stroke="#132264" vector-effect="non-scaling-stroke" d="   M 579.07 764.70   L 561.78 761.87"></path>
    <path stroke="#132264" vector-effect="non-scaling-stroke" d="   M 560.74 761.75   Q 561.01 761.37 560.74 761.28   Q 551.31 758.23 541.99 754.27"></path>
    <path stroke="#132264" vector-effect="non-scaling-stroke" d="   M 485.29 686.09   Q 485.76 684.83 484.80 683.37"></path>
    <path stroke="#132264" vector-effect="non-scaling-stroke" d="   M 484.67 683.25   Q 484.99 681.60 484.04 679.59"></path>
    <path stroke="#132264" vector-effect="non-scaling-stroke" d="   M 483.67 679.07   Q 484.26 676.73 483.15 674.92"></path>
    <path stroke="#806820" vector-effect="non-scaling-stroke" d="   M 482.77 673.35   Q 483.39 670.31 482.33 667.99"></path>
    <path stroke="#132264" vector-effect="non-scaling-stroke" d="   M 481.97 612.73   Q 482.30 610.77 482.21 608.72   Q 482.14 607.14 482.26 604.76   Q 482.38 602.49 481.75 600.44"></path>
    <path stroke="#132264" vector-effect="non-scaling-stroke" d="   M 482.29 597.70   Q 483.01 596.57 482.88 595.05"></path>
    <path stroke="#132264" vector-effect="non-scaling-stroke" d="   M 523.14 580.16   Q 529.86 585.55 533.72 592.79"></path>
    <path stroke="#132264" vector-effect="non-scaling-stroke" d="   M 535.76 599.93   Q 535.03 629.20 535.80 658.21"></path>
    <path stroke="#806820" vector-effect="non-scaling-stroke" d="   M 536.53 660.93   Q 536.04 661.42 536.26 662.75   Q 537.34 669.57 538.32 673.56"></path>
    <path stroke="#806820" vector-effect="non-scaling-stroke" d="   M 538.66 673.60   Q 538.78 676.30 540.22 678.52"></path>
    <path stroke="#806820" vector-effect="non-scaling-stroke" d="   M 541.61 681.61   Q 551.15 700.01 569.80 707.92   Q 575.32 710.26 581.98 710.90"></path>
    <path stroke="#806820" vector-effect="non-scaling-stroke" d="   M 582.54 711.04   Q 588.61 712.13 594.71 711.06"></path>
    <path stroke="#132264" vector-effect="non-scaling-stroke" d="   M 596.71 710.58   Q 599.77 710.81 602.68 709.48"></path>
    <path stroke="#132264" vector-effect="non-scaling-stroke" d="   M 606.68 708.51   Q 608.00 708.83 608.11 707.85"></path>
    <path stroke="#132264" vector-effect="non-scaling-stroke" d="   M 610.72 706.84   Q 612.88 706.76 612.88 705.62"></path>
    <path stroke="#806820" vector-effect="non-scaling-stroke" d="   M 643.45 662.21   L 643.83 461.77"></path>
    <path stroke="#806820" vector-effect="non-scaling-stroke" d="   M 643.83 461.77   L 647.91 453.21"></path>
    <path stroke="#806820" vector-effect="non-scaling-stroke" d="   M 652.18 448.94   L 658.15 444.68"></path>
    <path stroke="#806820" vector-effect="non-scaling-stroke" d="   M 660.59 443.62   L 666.33 442.10"></path>
    <path stroke="#7b726a" vector-effect="non-scaling-stroke" d="   M 697.33 465.29   L 697.20 466.21"></path>
    <path stroke="#806820" vector-effect="non-scaling-stroke" d="   M 755.31 441.77   L 749.42 441.70"></path>
    <path stroke="#806820" vector-effect="non-scaling-stroke" d="   M 756.49 442.12   Q 757.90 442.80 759.28 442.71"></path>
    <path stroke="#806820" vector-effect="non-scaling-stroke" d="   M 760.26 443.07   L 769.53 448.09"></path>
    <path stroke="#806820" vector-effect="non-scaling-stroke" d="   M 771.91 450.54   Q 772.87 452.58 774.63 453.89"></path>
    <path stroke="#132264" vector-effect="non-scaling-stroke" d="   M 778.77 605.35   Q 778.03 608.03 779.14 609.99"></path>
    <path stroke="#132264" vector-effect="non-scaling-stroke" d="   M 779.14 609.99   Q 779.15 610.73 779.75 612.28   Q 784.65 624.99 797.13 629.38   Q 799.36 630.17 804.77 630.32"></path>
    <path stroke="#132264" vector-effect="non-scaling-stroke" d="   M 912.20 610.72   Q 912.93 608.83 912.80 606.70"></path>
    <path stroke="#132264" vector-effect="non-scaling-stroke" d="   M 912.92 605.47   Q 913.99 601.12 913.88 596.49   Q 913.71 589.36 913.40 582.22   C 913.27 579.15 913.58 576.30 913.92 573.33   Q 913.98 572.82 913.59 572.21"></path>
    <path stroke="#132264" vector-effect="non-scaling-stroke" d="   M 913.83 571.70   L 914.89 566.87"></path>
    <path stroke="#132264" vector-effect="non-scaling-stroke" d="   M 916.31 564.52   C 917.78 562.69 918.95 560.44 920.42 558.91   Q 924.17 555.01 928.99 552.52   C 931.19 551.38 933.88 550.84 936.38 550.01"></path>
    <path stroke="#806820" vector-effect="non-scaling-stroke" d="   M 937.84 549.55   Q 940.76 550.31 943.60 549.60"></path>
    <path stroke="#806820" vector-effect="non-scaling-stroke" d="   M 945.41 550.13   Q 948.38 550.97 951.27 551.94   Q 952.11 552.23 953.75 553.25   Q 954.98 554.02 956.41 554.33"></path>
    <path stroke="#806820" vector-effect="non-scaling-stroke" d="   M 957.89 555.50   Q 958.89 557.91 961.54 559.44"></path>
    <path stroke="#132264" vector-effect="non-scaling-stroke" d="   M 962.09 560.18   L 966.07 568.53"></path>
    <path stroke="#806820" vector-effect="non-scaling-stroke" d="   M 967.35 573.25   L 967.19 606.57"></path>
    <path stroke="#806820" vector-effect="non-scaling-stroke" d="   M 966.73 612.74   Q 965.45 624.79 962.47 631.96   Q 960.70 636.20 960.33 637.50"></path>
    <path stroke="#806820" vector-effect="non-scaling-stroke" d="   M 958.45 641.13   L 954.16 647.95"></path>
    <path stroke="#132264" vector-effect="non-scaling-stroke" d="   M 954.16 647.95   Q 942.38 664.43 925.03 674.53   Q 924.53 674.82 924.30 675.12   Q 923.98 675.53 923.47 675.58   Q 923.06 675.63 922.58 675.80   Q 918.79 677.18 915.34 679.60"></path>
    <path stroke="#806820" vector-effect="non-scaling-stroke" d="   M 750.24 663.34   Q 748.63 660.22 745.15 658.07"></path>
    <path stroke="#132264" vector-effect="non-scaling-stroke" d="   M 727.77 626.79   L 726.30 620.18"></path>
    <path stroke="#806820" vector-effect="non-scaling-stroke" d="   M 725.79 618.50   Q 726.23 616.84 725.50 615.23"></path>
    <path stroke="#806820" vector-effect="non-scaling-stroke" d="   M 726.18 458.78   Q 732.76 445.12 747.65 442.19"></path>
    <path stroke="#7b726a" vector-effect="non-scaling-stroke" d="   M 954.32 648.07   Q 954.24 648.01 954.16 647.95"></path>
    <path stroke="#132264" vector-effect="non-scaling-stroke" d="   M 1111.24 470.13   L 1117.33 473.02"></path>
    <path stroke="#132264" vector-effect="non-scaling-stroke" d="   M 1117.33 473.02   Q 1118.61 475.00 1121.24 476.23"></path>
    <path stroke="#132264" vector-effect="non-scaling-stroke" d="   M 1121.67 476.70   L 1127.98 486.91"></path>
    <path stroke="#132264" vector-effect="non-scaling-stroke" d="   M 1128.29 487.18   Q 1128.22 490.31 1129.30 492.65"></path>
    <path stroke="#132264" vector-effect="non-scaling-stroke" d="   M 1125.72 509.53   Q 1118.47 520.10 1106.50 522.31"></path>
    <path stroke="#132264" vector-effect="non-scaling-stroke" d="   M 1095.04 521.80   Q 1092.14 520.34 1089.41 518.89   Q 1086.19 517.19 1084.25 515.27   Q 1079.33 510.39 1076.28 503.35"></path>
    <path stroke="#132264" vector-effect="non-scaling-stroke" d="   M 1678.23 470.16   L 1684.16 473.18"></path>
    <path stroke="#132264" vector-effect="non-scaling-stroke" d="   M 1684.58 473.52   L 1691.40 480.47"></path>
    <path stroke="#132264" vector-effect="non-scaling-stroke" d="   M 1691.65 480.79   L 1694.63 486.54"></path>
    <path stroke="#132264" vector-effect="non-scaling-stroke" d="   M 1695.71 490.36   Q 1696.18 497.67 1694.84 504.18"></path>
    <path stroke="#132264" vector-effect="non-scaling-stroke" d="   M 1694.51 504.88   Q 1688.28 519.12 1673.81 522.41"></path>
    <path stroke="#132264" vector-effect="non-scaling-stroke" d="   M 1661.78 521.61   Q 1656.40 519.39 1655.00 518.50   Q 1649.96 515.28 1646.67 510.40   Q 1645.56 508.75 1644.31 505.52   Q 1643.32 502.96 1642.19 500.48"></path>
    <path stroke="#132264" vector-effect="non-scaling-stroke" d="   M 1641.87 497.59   Q 1642.89 495.71 1641.92 493.53"></path>
    <path stroke="#132264" vector-effect="non-scaling-stroke" d="   M 1642.30 490.53   Q 1643.52 488.27 1643.86 485.74"></path>
    <path stroke="#7f7b8b" vector-effect="non-scaling-stroke" d="   M 1919.89 509.67   L 1923.73 512.59"></path>
    <path stroke="#1235cf" vector-effect="non-scaling-stroke" d="   M 1923.73 512.59   Q 1898.06 576.38 1872.54 639.77   C 1871.15 643.20 1873.83 646.59 1876.59 648.33   Q 1878.49 649.52 1881.25 649.81   Q 1883.80 650.08 1886.31 649.80   Q 1909.16 647.21 1925.42 632.60   Q 1928.05 630.24 1926.24 633.27   Q 1924.31 636.49 1922.56 641.61"></path>
    <path stroke="#7f7b8b" vector-effect="non-scaling-stroke" d="   M 1922.56 641.61   Q 1897.14 660.41 1864.51 657.21"></path>
    <path stroke="#7b726a" vector-effect="non-scaling-stroke" d="   M 1922.56 641.61   Q 1938.54 629.25 1947.57 612.10   Q 1950.49 606.54 1952.61 599.56   Q 1954.73 592.58 1955.24 586.24   Q 1956.45 571.41 1953.06 556.78   Q 1946.85 529.92 1923.73 512.59"></path>
    <path stroke="#806820" vector-effect="non-scaling-stroke" d="   M 1025.08 549.61   Q 1021.62 550.25 1018.22 549.59"></path>
    <path stroke="#806820" vector-effect="non-scaling-stroke" d="   M 1457.74 550.07   L 1460.52 550.61"></path>
    <path stroke="#132264" vector-effect="non-scaling-stroke" d="   M 1463.41 551.64   L 1465.95 553.04"></path>
    <path stroke="#132264" vector-effect="non-scaling-stroke" d="   M 1466.44 553.28   Q 1475.19 558.70 1478.79 568.04"></path>
    <path stroke="#132264" vector-effect="non-scaling-stroke" d="   M 1480.01 574.03   L 1479.76 605.43   Q 1479.76 605.72 1479.91 605.97   Q 1480.28 606.54 1479.82 606.33"></path>
    <path stroke="#132264" vector-effect="non-scaling-stroke" d="   M 1478.93 622.06   L 1475.74 632.25"></path>
    <path stroke="#132264" vector-effect="non-scaling-stroke" d="   M 1475.46 632.90   Q 1469.80 646.96 1459.93 658.42"></path>
    <path stroke="#132264" vector-effect="non-scaling-stroke" d="   M 1459.93 658.42   L 1454.99 663.45"></path>
    <path stroke="#132264" vector-effect="non-scaling-stroke" d="   M 1454.69 663.64   Q 1450.58 666.98 1446.34 670.00   Q 1444.69 671.17 1442.25 672.51   Q 1440.82 673.30 1438.20 674.98   Q 1437.73 675.29 1437.25 675.32   L 1436.82 675.36   Q 1436.36 675.39 1436.25 675.80   Q 1436.03 676.54 1435.33 676.31   A 0.87 0.86 39.6 0 0 1434.64 676.38   Q 1432.34 677.65 1429.76 678.46   Q 1429.47 678.56 1429.11 678.90   Q 1428.82 679.18 1428.53 679.45"></path>
    <path stroke="#132264" vector-effect="non-scaling-stroke" d="   M 1427.68 679.56   L 1415.92 682.84"></path>
    <path stroke="#132264" vector-effect="non-scaling-stroke" d="   M 1214.61 681.25   Q 1212.54 680.25 1210.28 679.47   Q 1208.96 679.02 1208.27 679.53   Q 1207.29 680.25 1207.77 682.01"></path>
    <path stroke="#132264" vector-effect="non-scaling-stroke" d="   M 1207.49 682.96   Q 1205.02 690.36 1202.54 697.53   Q 1201.06 701.81 1193.97 714.22"></path>
    <path stroke="#806820" vector-effect="non-scaling-stroke" d="   M 1193.97 714.22   Q 1192.61 715.96 1191.39 717.83   Q 1189.75 720.36 1188.89 721.47   Q 1181.02 731.67 1171.21 740.12"></path>
    <path stroke="#132264" vector-effect="non-scaling-stroke" d="   M 1170.72 740.66   L 1167.20 743.50"></path>
    <path stroke="#132264" vector-effect="non-scaling-stroke" d="   M 1167.20 743.50   L 1164.17 745.69"></path>
    <path stroke="#132264" vector-effect="non-scaling-stroke" d="   M 1164.17 745.69   Q 1158.54 749.15 1152.79 752.37   Q 1150.53 753.64 1146.52 755.31   Q 1143.30 756.64 1140.22 758.29"></path>
    <path stroke="#132264" vector-effect="non-scaling-stroke" d="   M 1139.30 758.67   Q 1138.91 758.15 1138.32 758.66   A 1.34 1.34 0.0 0 1 1137.47 758.98   Q 1135.91 759.02 1135.25 759.97"></path>
    <path stroke="#132264" vector-effect="non-scaling-stroke" d="   M 1121.38 763.51   L 1110.69 764.79"></path>
    <path stroke="#132264" vector-effect="non-scaling-stroke" d="   M 1105.62 765.12   L 1098.68 765.15"></path>
    <path stroke="#132264" vector-effect="non-scaling-stroke" d="   M 1094.00 764.80   L 1082.37 763.27"></path>
    <path stroke="#132264" vector-effect="non-scaling-stroke" d="   M 1075.04 761.67   Q 1072.55 760.27 1069.90 760.36"></path>
    <path stroke="#132264" vector-effect="non-scaling-stroke" d="   M 1030.82 738.26   Q 1030.78 738.14 1030.75 737.99   A 0.60 0.60 0.0 0 0 1030.59 737.68   L 1017.15 723.77"></path>
    <path stroke="#132264" vector-effect="non-scaling-stroke" d="   M 996.44 679.06   L 995.19 663.26"></path>
    <path stroke="#806820" vector-effect="non-scaling-stroke" d="   M 994.81 656.20   L 994.53 609.34"></path>
    <path stroke="#132264" vector-effect="non-scaling-stroke" d="   M 994.36 575.98   L 995.03 571.33"></path>
    <path stroke="#806820" vector-effect="non-scaling-stroke" d="   M 995.03 571.33   Q 996.25 564.97 999.93 560.04"></path>
    <path stroke="#806820" vector-effect="non-scaling-stroke" d="   M 1000.46 559.20   Q 1002.46 557.88 1003.88 555.97"></path>
    <path stroke="#132264" vector-effect="non-scaling-stroke" d="   M 1014.26 550.59   Q 1015.62 550.61 1017.20 550.06"></path>
    <path stroke="#132264" vector-effect="non-scaling-stroke" d="   M 1026.21 550.07   L 1031.50 551.52"></path>
    <path stroke="#806820" vector-effect="non-scaling-stroke" d="   M 1031.74 551.43   Q 1033.02 552.42 1034.43 553.19   Q 1036.47 554.31 1037.15 554.82   Q 1044.93 560.62 1047.39 569.83"></path>
    <path stroke="#806820" vector-effect="non-scaling-stroke" d="   M 1047.61 570.11   Q 1047.88 572.43 1048.19 574.70   Q 1048.51 577.05 1048.48 579.32   Q 1047.94 618.39 1048.84 657.47"></path>
    <path stroke="#806820" vector-effect="non-scaling-stroke" d="   M 1049.26 660.02   Q 1048.74 662.91 1049.66 665.17"></path>
    <path stroke="#806820" vector-effect="non-scaling-stroke" d="   M 1050.18 667.42   Q 1049.47 669.19 1050.46 670.56"></path>
    <path stroke="#806820" vector-effect="non-scaling-stroke" d="   M 1051.05 671.40   Q 1050.49 672.65 1050.99 674.24   Q 1054.50 685.46 1062.74 693.99"></path>
    <path stroke="#806820" vector-effect="non-scaling-stroke" d="   M 1065.70 697.03   Q 1073.07 704.00 1082.74 707.49"></path>
    <path stroke="#806820" vector-effect="non-scaling-stroke" d="   M 1086.40 708.67   Q 1091.52 710.75 1097.01 710.89"></path>
    <path stroke="#132264" vector-effect="non-scaling-stroke" d="   M 1109.19 710.34   Q 1110.36 710.89 1111.95 710.26"></path>
    <path stroke="#132264" vector-effect="non-scaling-stroke" d="   M 1118.65 708.48   Q 1121.03 708.24 1123.08 706.96"></path>
    <path stroke="#132264" vector-effect="non-scaling-stroke" d="   M 1133.47 701.04   Q 1134.66 701.28 1135.11 699.77"></path>
    <path stroke="#132264" vector-effect="non-scaling-stroke" d="   M 1150.55 681.02   Q 1153.76 676.78 1154.30 671.55"></path>
    <path stroke="#806820" vector-effect="non-scaling-stroke" d="   M 1155.37 666.41   L 1155.67 661.14"></path>
    <path stroke="#806820" vector-effect="non-scaling-stroke" d="   M 1156.10 656.99   Q 1156.77 651.42 1156.81 645.75   Q 1157.00 614.00 1156.40 582.25   Q 1156.22 572.56 1158.37 564.76"></path>
    <path stroke="#132264" vector-effect="non-scaling-stroke" d="   M 1159.95 562.07   Q 1163.22 558.70 1166.59 555.60   Q 1168.76 553.60 1171.50 552.50   Q 1171.78 552.38 1172.02 551.78"></path>
    <path stroke="#132264" vector-effect="non-scaling-stroke" d="   M 1206.22 562.25   Q 1208.12 564.86 1209.14 568.10"></path>
    <path stroke="#132264" vector-effect="non-scaling-stroke" d="   M 1209.41 568.20   Q 1209.05 569.27 1209.92 570.08"></path>
    <path stroke="#806820" vector-effect="non-scaling-stroke" d="   M 1210.14 571.97   L 1210.68 576.41"></path>
    <path stroke="#806820" vector-effect="non-scaling-stroke" d="   M 1210.68 590.74   Q 1209.60 599.15 1210.62 607.56"></path>
    <path stroke="#806820" vector-effect="non-scaling-stroke" d="   M 1210.98 610.17   Q 1210.83 611.53 1211.45 612.90"></path>
    <path stroke="#806820" vector-effect="non-scaling-stroke" d="   M 1211.61 613.20   Q 1212.22 618.32 1215.96 621.50"></path>
    <path stroke="#806820" vector-effect="non-scaling-stroke" d="   M 1219.01 624.70   Q 1225.80 630.38 1234.56 630.23"></path>
    <path stroke="#132264" vector-effect="non-scaling-stroke" d="   M 1400.69 630.08   Q 1402.88 630.85 1404.98 629.81"></path>
    <path stroke="#132264" vector-effect="non-scaling-stroke" d="   M 1407.29 629.26   Q 1409.31 629.55 1411.55 628.54   Q 1421.78 623.87 1425.52 613.18   Q 1425.93 611.98 1425.92 611.04   C 1425.90 609.19 1426.70 607.67 1426.70 605.54   Q 1426.75 592.56 1426.50 588.26   Q 1426.01 579.74 1426.88 573.30   Q 1426.92 573.00 1426.73 572.56   Q 1426.53 572.08 1426.72 571.59   Q 1427.27 570.20 1427.47 568.36   Q 1427.58 567.29 1428.74 565.21   Q 1429.81 563.28 1430.66 561.11"></path>
    <path stroke="#132264" vector-effect="non-scaling-stroke" d="   M 1445.69 550.65   Q 1447.43 550.67 1448.98 550.09"></path>
    <path stroke="#806820" vector-effect="non-scaling-stroke" d="   M 1456.34 549.56   L 1449.79 549.74"></path>
    <path stroke="#7b726a" vector-effect="non-scaling-stroke" d="   M 1227.45 628.85   Q 1228.18 628.82 1228.53 629.12"></path>
    <path stroke="#132264" vector-effect="non-scaling-stroke" d="   M 1206.22 562.25   Q 1201.47 556.70 1199.36 555.14   Q 1190.62 548.69 1179.92 549.81   Q 1178.68 549.94 1176.15 550.71   Q 1174.37 551.24 1172.35 551.60"></path>
    <path stroke="#806820" vector-effect="non-scaling-stroke" d="   M 1672.20 549.66   Q 1669.13 550.17 1666.18 549.66"></path>
    <path stroke="#806820" vector-effect="non-scaling-stroke" d="   M 1673.45 550.07   Q 1674.91 550.72 1676.15 550.51"></path>
    <path stroke="#806820" vector-effect="non-scaling-stroke" d="   M 1677.27 550.81   Q 1689.77 555.54 1694.60 568.03"></path>
    <path stroke="#132264" vector-effect="non-scaling-stroke" d="   M 1694.83 568.17   Q 1694.54 569.76 1695.36 570.82"></path>
    <path stroke="#132264" vector-effect="non-scaling-stroke" d="   M 1695.93 572.51   Q 1695.26 587.72 1696.13 602.83"></path>
    <path stroke="#132264" vector-effect="non-scaling-stroke" d="   M 1694.56 694.50   L 1693.02 701.02"></path>
    <path stroke="#132264" vector-effect="non-scaling-stroke" d="   M 1693.02 701.02   Q 1691.44 705.39 1690.33 710.04   Q 1689.73 712.54 1684.29 723.58   Q 1682.28 727.65 1679.66 731.51   Q 1676.21 736.59 1674.05 738.80   Q 1670.74 742.18 1668.60 744.34   Q 1665.43 747.53 1662.77 749.49   Q 1649.42 759.36 1632.99 763.36"></path>
    <path stroke="#132264" vector-effect="non-scaling-stroke" d="   M 1632.78 763.59   L 1624.76 764.93"></path>
    <path stroke="#132264" vector-effect="non-scaling-stroke" d="   M 1623.04 765.00   L 1611.43 765.18"></path>
    <path stroke="#132264" vector-effect="non-scaling-stroke" d="   M 1607.53 764.37   Q 1605.43 762.72 1602.67 762.20   Q 1602.25 762.12 1601.93 761.84   Q 1601.03 761.03 1599.93 760.53   Q 1598.87 760.05 1597.55 758.63   Q 1595.92 756.88 1593.89 755.49"></path>
    <path stroke="#132264" vector-effect="non-scaling-stroke" d="   M 1591.46 752.11   Q 1590.78 749.39 1589.17 746.96"></path>
    <path stroke="#132264" vector-effect="non-scaling-stroke" d="   M 1588.43 733.21   Q 1589.02 731.99 1589.06 730.95"></path>
    <path stroke="#132264" vector-effect="non-scaling-stroke" d="   M 1589.19 729.71   L 1590.99 725.47"></path>
    <path stroke="#132264" vector-effect="non-scaling-stroke" d="   M 1591.21 724.80   Q 1593.84 721.68 1596.66 718.80   Q 1597.87 717.57 1599.83 716.24   Q 1601.53 715.09 1603.11 713.80"></path>
    <path stroke="#132264" vector-effect="non-scaling-stroke" d="   M 1619.52 710.88   L 1622.42 710.33"></path>
    <path stroke="#132264" vector-effect="non-scaling-stroke" d="   M 1641.74 681.39   Q 1643.11 672.01 1642.68 662.50   Q 1642.65 661.88 1642.04 661.69"></path>
    <path stroke="#132264" vector-effect="non-scaling-stroke" d="   M 1642.15 590.99   Q 1642.44 590.68 1642.46 590.24   Q 1642.81 583.74 1642.02 577.01"></path>
    <path stroke="#132264" vector-effect="non-scaling-stroke" d="   M 1642.33 573.29   Q 1643.44 572.09 1643.02 569.89"></path>
    <path stroke="#132264" vector-effect="non-scaling-stroke" d="   M 1643.20 569.27   L 1646.15 562.02"></path>
    <path stroke="#806820" vector-effect="non-scaling-stroke" d="   M 1646.17 561.67   Q 1651.27 555.49 1658.25 551.92   Q 1659.97 551.03 1665.65 550.08"></path>
    <path stroke="#132264" vector-effect="non-scaling-stroke" d="   M 1558.95 550.04   Q 1556.35 550.87 1554.59 550.33"></path>
    <path stroke="#806820" vector-effect="non-scaling-stroke" d="   M 1563.30 550.03   L 1567.08 550.80"></path>
    <path stroke="#132264" vector-effect="non-scaling-stroke" d="   M 1567.08 550.80   L 1572.77 552.25"></path>
    <path stroke="#806820" vector-effect="non-scaling-stroke" d="   M 1573.96 553.11   Q 1583.67 558.54 1587.28 570.01"></path>
    <path stroke="#132264" vector-effect="non-scaling-stroke" d="   M 1587.99 573.81   Q 1587.21 626.19 1587.60 678.50   Q 1587.61 678.97 1587.92 680.04"></path>
    <path stroke="#806820" vector-effect="non-scaling-stroke" d="   M 1586.74 693.75   Q 1584.64 701.91 1582.45 709.94   Q 1581.05 715.10 1574.79 726.80   Q 1572.82 730.48 1565.99 739.20"></path>
    <path stroke="#132264" vector-effect="non-scaling-stroke" d="   M 1565.99 739.20   Q 1563.98 741.04 1562.03 743.03   Q 1553.67 751.54 1543.00 757.11"></path>
    <path stroke="#132264" vector-effect="non-scaling-stroke" d="   M 1540.56 758.20   L 1530.04 762.47"></path>
    <path stroke="#132264" vector-effect="non-scaling-stroke" d="   M 1529.20 762.54   Q 1527.58 762.46 1526.24 763.12"></path>
    <path stroke="#806820" vector-effect="non-scaling-stroke" d="   M 1525.53 763.82   Q 1525.61 763.40 1525.42 763.42   Q 1521.41 763.84 1517.41 764.82"></path>
    <path stroke="#806820" vector-effect="non-scaling-stroke" d="   M 1514.66 765.16   L 1504.69 765.01"></path>
    <path stroke="#132264" vector-effect="non-scaling-stroke" d="   M 1503.22 764.84   C 1501.97 763.92 1500.51 764.15 1499.30 763.71   Q 1497.11 762.91 1494.91 762.19   Q 1494.71 762.12 1494.62 762.16   Q 1494.44 762.23 1494.45 762.45"></path>
    <path stroke="#132264" vector-effect="non-scaling-stroke" d="   M 1493.85 762.26   Q 1493.74 761.71 1493.48 761.55   Q 1488.25 758.34 1484.46 753.20"></path>
    <path stroke="#132264" vector-effect="non-scaling-stroke" d="   M 1484.27 752.80   Q 1483.80 750.34 1482.15 748.58"></path>
    <path stroke="#132264" vector-effect="non-scaling-stroke" d="   M 1482.02 748.19   L 1481.38 746.39"></path>
    <path stroke="#132264" vector-effect="non-scaling-stroke" d="   M 1481.32 729.23   Q 1481.61 728.63 1481.66 728.04"></path>
    <path stroke="#132264" vector-effect="non-scaling-stroke" d="   M 1483.74 724.06   L 1489.10 717.92"></path>
    <path stroke="#132264" vector-effect="non-scaling-stroke" d="   M 1513.52 710.60   Q 1516.22 710.98 1517.99 708.62"></path>
    <path stroke="#132264" vector-effect="non-scaling-stroke" d="   M 1531.92 691.32   Q 1534.55 684.90 1533.35 679.36"></path>
    <path stroke="#132264" vector-effect="non-scaling-stroke" d="   M 1537.77 562.00   Q 1542.63 556.03 1549.15 552.60   Q 1549.16 552.59 1549.16 552.58   Q 1549.14 552.46 1549.12 552.34"></path>
    <path stroke="#132264" vector-effect="non-scaling-stroke" d="   M 1550.70 551.58   Q 1552.41 552.08 1553.11 550.84"></path>
    <path stroke="#7b726a" vector-effect="non-scaling-stroke" d="   M 1567.60 550.54   Q 1567.17 550.82 1567.08 550.80"></path>
    <path stroke="#132264" vector-effect="non-scaling-stroke" d="   M 918.20 711.82   L 828.95 711.82"></path>
    <path stroke="#132264" vector-effect="non-scaling-stroke" d="   M 929.74 716.69   L 937.63 725.04"></path>
    <path stroke="#132264" vector-effect="non-scaling-stroke" d="   M 888.64 776.39   Q 888.34 773.61 887.02 770.81"></path>
    <path stroke="#806820" vector-effect="non-scaling-stroke" d="   M 886.07 766.52   Q 886.52 765.95 886.16 765.46   Q 885.94 765.17 885.39 765.06   Q 884.47 764.87 883.52 764.87   Q 861.94 765.04 836.75 764.96   Q 835.71 764.95 834.70 765.05"></path>
    <path stroke="#132264" vector-effect="non-scaling-stroke" d="   M 826.94 764.93   Q 820.68 763.17 818.00 761.24   Q 812.98 757.61 808.08 749.63"></path>
    <path stroke="#132264" vector-effect="non-scaling-stroke" d="   M 806.32 746.34   Q 806.93 745.42 805.80 743.55"></path>
    <path stroke="#132264" vector-effect="non-scaling-stroke" d="   M 811.95 720.33   Q 813.68 719.49 814.77 717.79"></path>
    <path stroke="#806820" vector-effect="non-scaling-stroke" d="   M 1431.55 711.67   L 1340.79 711.81"></path>
    <path stroke="#132264" vector-effect="non-scaling-stroke" d="   M 1440.27 714.78   Q 1449.20 720.75 1452.25 730.95"></path>
    <path stroke="#806820" vector-effect="non-scaling-stroke" d="   M 1452.52 731.95   Q 1452.87 738.25 1452.79 740.25   Q 1452.63 744.90 1450.64 750.46"></path>
    <path stroke="#806820" vector-effect="non-scaling-stroke" d="   M 1449.94 751.45   Q 1447.40 755.89 1443.85 759.16"></path>
    <path stroke="#806820" vector-effect="non-scaling-stroke" d="   M 1443.47 759.51   Q 1438.17 763.08 1431.38 764.86"></path>
    <path stroke="#806820" vector-effect="non-scaling-stroke" d="   M 1429.98 764.94   Q 1388.25 764.83 1346.53 764.94   Q 1339.48 764.96 1336.68 763.99   Q 1331.79 762.29 1327.62 759.19   Q 1326.41 758.29 1324.71 756.14   Q 1323.43 754.52 1322.10 752.91"></path>
    <path stroke="#132264" vector-effect="non-scaling-stroke" d="   M 1321.78 752.24   L 1319.57 747.24"></path>
    <path stroke="#132264" vector-effect="non-scaling-stroke" d="   M 1318.73 734.21   L 1320.88 726.03"></path>
    <path stroke="#132264" vector-effect="non-scaling-stroke" d="   M 1321.29 725.50   Q 1322.25 724.05 1323.20 722.59   Q 1324.21 721.03 1325.39 719.94   Q 1329.39 716.24 1334.10 713.44"></path>
    <path stroke="#132264" vector-effect="non-scaling-stroke" d="   M 1336.61 712.64   Q 1338.29 712.62 1339.78 711.91"></path>
  </g>
  <path fill="#e8b826" d="   M 674.91 441.79   L 667.17 441.74   Q 671.01 440.41 674.91 441.79   Z"></path>
  <path fill="#e8b826" d="   M 755.31 441.77   L 749.42 441.70   Q 752.43 440.42 755.31 441.77   Z"></path>
  <path fill="#181819" d="   M 667.17 441.74   L 674.91 441.79   Q 675.31 442.03 676.37 442.20   Q 679.13 443.22 681.78 444.32   Q 682.94 444.80 684.67 445.85   Q 686.06 446.71 687.56 447.41   L 690.90 450.80   L 695.49 458.27   Q 695.52 458.67 695.97 458.89   Q 695.59 460.12 696.41 461.04   Q 696.47 461.12 696.53 461.20   L 697.20 466.21   L 697.32 650.96   L 696.40 669.22   Q 695.16 670.71 695.86 674.01   L 695.42 676.49   Q 694.48 678.16 694.82 680.25   L 694.71 681.29   L 691.76 692.54   Q 691.57 692.83 691.48 693.20   L 683.57 710.20   Q 683.96 710.10 683.38 710.67   Q 680.50 714.82 677.88 719.12   Q 674.77 724.24 665.19 734.16   Q 665.11 734.24 665.11 734.35   Q 665.11 734.40 665.10 734.45   Q 664.74 734.92 664.72 734.72   Q 655.75 742.79 645.63 749.34   Q 643.82 750.51 640.17 752.30   Q 637.41 753.65 634.72 755.31   Q 634.59 755.47 634.25 755.63   Q 634.31 755.48 634.12 755.41   Q 634.01 755.37 633.90 755.42   L 627.69 758.31   Q 626.52 758.97 622.04 760.25   Q 612.24 763.05 608.71 763.58   L 598.31 764.99   Q 596.21 764.72 595.15 765.25   Q 588.88 764.44 582.65 765.22   L 579.07 764.70   L 561.78 761.87   Q 561.22 761.51 560.74 761.75   Q 561.01 761.37 560.74 761.28   Q 551.31 758.23 541.99 754.27   Q 538.12 752.78 531.45 748.81   Q 529.55 747.69 529.24 747.11   A 1.18 1.17 -1.8 0 0 528.68 746.58   Q 525.56 745.18 523.25 742.74   Q 523.00 742.48 522.34 742.36   Q 521.85 742.27 521.52 741.89   Q 520.90 741.19 518.42 738.66   Q 517.86 738.09 515.02 736.00   Q 513.02 734.54 511.77 732.68   Q 510.47 730.74 510.37 730.64   Q 507.79 728.09 507.67 727.98   Q 505.79 726.28 505.48 725.22   C 505.20 724.27 503.58 723.39 503.15 722.35   Q 502.65 721.14 501.19 719.92   A 1.12 1.12 0.0 0 1 500.79 719.09   Q 500.77 718.66 500.64 718.55   A 3.47 1.83 18.4 0 1 500.01 717.89   Q 499.06 716.54 495.56 710.44   Q 495.39 710.16 495.09 709.81   Q 494.59 709.24 494.48 709.02   Q 492.55 704.88 490.49 701.00   Q 490.29 700.63 490.29 699.81   Q 490.28 699.36 489.98 699.01   Q 489.21 698.15 488.90 696.77   Q 488.61 695.50 488.11 694.48   Q 486.13 690.49 485.29 686.09   Q 485.76 684.83 484.80 683.37   Q 484.63 683.61 484.67 683.25   Q 484.99 681.60 484.04 679.59   L 483.67 679.07   Q 484.26 676.73 483.15 674.92   Q 483.07 673.96 482.77 673.35   Q 483.39 670.31 482.33 667.99   L 482.20 663.54   Q 482.18 663.05 481.82 662.72   Q 481.40 662.35 481.40 662.00   Q 481.47 646.23 481.38 629.94   Q 481.38 629.43 481.59 629.12   Q 481.66 629.01 481.90 628.76   Q 482.21 628.44 482.21 628.01   L 482.21 613.28   Q 482.21 613.11 482.07 613.02   Q 481.89 612.89 481.97 612.73   Q 482.30 610.77 482.21 608.72   Q 482.14 607.14 482.26 604.76   Q 482.38 602.49 481.75 600.44   Q 482.42 599.93 482.29 597.70   Q 483.01 596.57 482.88 595.05   Q 483.10 592.90 483.66 591.99   Q 484.40 590.76 485.05 589.34   Q 485.71 587.87 486.69 586.90   Q 491.73 581.88 491.87 581.73   Q 492.74 580.78 493.94 580.23   Q 495.79 579.39 496.20 578.94   Q 496.84 578.23 498.06 578.11   Q 498.19 578.09 500.04 577.39   Q 507.70 574.50 515.75 576.60   C 517.06 576.94 518.40 577.78 519.90 578.13   Q 520.38 578.24 520.78 578.52   L 523.14 580.16   Q 529.86 585.55 533.72 592.79   Q 534.65 593.51 534.62 594.97   Q 534.60 595.48 534.98 595.83   Q 535.22 596.06 535.30 596.39   Q 535.40 596.83 535.36 597.11   Q 535.13 598.82 535.76 599.93   Q 535.03 629.20 535.80 658.21   L 536.53 660.93   Q 536.04 661.42 536.26 662.75   Q 537.34 669.57 538.32 673.56   Q 538.49 673.58 538.66 673.60   Q 538.78 676.30 540.22 678.52   Q 541.62 679.96 541.61 681.61   Q 551.15 700.01 569.80 707.92   Q 575.32 710.26 581.98 710.90   Q 581.83 710.52 582.54 711.04   Q 588.61 712.13 594.71 711.06   L 596.71 710.58   Q 599.77 710.81 602.68 709.48   L 606.68 708.51   Q 608.00 708.83 608.11 707.85   L 610.72 706.84   Q 612.88 706.76 612.88 705.62   Q 615.76 704.21 618.66 702.46   Q 620.49 701.35 621.18 700.38   Q 621.88 699.41 622.92 698.97   Q 623.58 698.70 624.68 697.67   Q 632.62 690.27 638.16 679.97   Q 638.42 679.48 638.37 679.11   Q 638.32 678.72 638.52 678.38   Q 640.91 674.39 641.65 670.40   Q 641.77 669.71 642.29 668.37   Q 642.63 667.48 642.41 666.31   Q 642.31 665.82 642.61 665.41   Q 643.45 664.29 643.45 662.21   L 643.83 461.77   L 647.91 453.21   L 652.18 448.94   L 658.15 444.68   Q 659.30 443.82 660.59 443.62   L 666.33 442.10   Q 666.95 441.94 667.17 441.74   Z"></path>
  <path fill="#181819" d="   M 749.42 441.70   L 755.31 441.77   Q 755.62 442.03 756.49 442.12   Q 757.90 442.80 759.28 442.71   Q 760.20 442.77 760.26 443.07   L 769.53 448.09   L 771.91 450.54   Q 772.87 452.58 774.63 453.89   Q 777.06 457.79 777.66 460.76   Q 778.66 465.72 778.56 472.94   Q 778.49 478.00 778.49 478.06   Q 778.44 540.65 778.50 603.25   Q 778.50 604.50 778.77 605.35   Q 778.03 608.03 779.14 609.99   Q 779.15 610.73 779.75 612.28   Q 784.65 624.99 797.13 629.38   Q 799.36 630.17 804.77 630.32   Q 842.96 630.49 881.31 630.41   C 884.13 630.41 888.58 630.09 892.11 629.59   Q 895.88 629.07 899.39 626.94   Q 908.96 621.14 912.20 610.72   Q 912.93 608.83 912.80 606.70   L 912.92 605.47   Q 913.99 601.12 913.88 596.49   Q 913.71 589.36 913.40 582.22   C 913.27 579.15 913.58 576.30 913.92 573.33   Q 913.98 572.82 913.59 572.21   Q 913.62 571.89 913.83 571.70   L 914.89 566.87   Q 915.37 565.39 916.31 564.52   C 917.78 562.69 918.95 560.44 920.42 558.91   Q 924.17 555.01 928.99 552.52   C 931.19 551.38 933.88 550.84 936.38 550.01   Q 937.64 550.00 937.84 549.55   Q 940.76 550.31 943.60 549.60   L 945.41 550.13   Q 948.38 550.97 951.27 551.94   Q 952.11 552.23 953.75 553.25   Q 954.98 554.02 956.41 554.33   Q 957.27 555.63 957.89 555.50   Q 958.89 557.91 961.54 559.44   L 962.09 560.18   L 966.07 568.53   Q 966.91 569.58 966.83 570.25   Q 966.58 572.20 967.35 573.25   L 967.19 606.57   L 966.73 612.74   Q 965.45 624.79 962.47 631.96   Q 960.70 636.20 960.33 637.50   Q 959.96 639.37 958.45 641.13   L 954.16 647.95   Q 942.38 664.43 925.03 674.53   Q 924.53 674.82 924.30 675.12   Q 923.98 675.53 923.47 675.58   Q 923.06 675.63 922.58 675.80   Q 918.79 677.18 915.34 679.60   Q 914.21 680.50 912.95 680.31   Q 912.40 680.24 912.24 680.61   L 912.11 680.90   Q 911.98 681.19 911.60 681.12   Q 910.57 680.94 909.61 681.67   Q 909.20 681.98 908.69 681.94   Q 907.13 681.84 906.06 682.60   A 1.25 1.25 0.0 0 1 905.12 682.82   Q 904.05 682.64 902.97 683.00   Q 901.63 683.45 900.99 683.48   Q 900.85 683.48 895.00 684.10   Q 891.97 684.41 888.99 684.41   Q 846.25 684.31 804.01 684.49   Q 795.37 684.53 781.75 681.29   Q 781.06 681.13 780.89 681.15   Q 780.42 681.21 779.93 680.65   A 0.93 0.93 0.0 0 0 779.05 680.36   Q 778.08 680.54 777.38 679.82   Q 777.04 679.47 776.44 679.50   L 776.11 679.51   Q 775.69 679.53 775.44 679.34   C 773.77 678.04 771.86 678.03 770.14 677.05   Q 767.66 675.65 766.98 675.47   Q 766.01 675.21 764.17 673.75   Q 764.01 673.63 761.24 672.23   Q 757.89 670.53 750.24 663.34   Q 748.63 660.22 745.15 658.07   Q 741.37 654.37 736.03 646.22   Q 732.46 640.75 731.38 637.38   Q 730.53 634.73 729.77 633.77   Q 729.37 633.28 729.40 632.65   Q 729.45 631.65 728.89 631.13   Q 728.49 630.76 728.59 630.23   Q 728.76 629.38 728.15 628.84   Q 727.76 628.51 727.76 627.99   L 727.77 626.79   L 726.30 620.18   L 725.79 618.50   Q 726.23 616.84 725.50 615.23   Q 724.54 606.90 724.55 597.75   Q 724.60 533.75 724.54 469.75   Q 724.53 464.40 726.18 458.78   Q 732.76 445.12 747.65 442.19   L 749.42 441.70   Z"></path>
  <path fill="#e8b826" d="   M 666.33 442.10   L 660.59 443.62   Q 663.37 441.85 666.33 442.10   Z"></path>
  <path fill="#0e2cae" d="   M 687.56 447.41   Q 686.06 446.71 684.67 445.85   Q 682.94 444.80 681.78 444.32   Q 679.13 443.22 676.37 442.20   C 678.30 441.58 678.80 443.11 680.48 442.87   A 0.54 0.54 0.0 0 1 681.03 443.16   Q 681.14 443.37 681.39 443.56   Q 681.49 443.63 681.80 443.71   Q 685.28 444.62 687.56 447.41   Z"></path>
  <path fill="#e8b826" d="   M 747.65 442.19   Q 732.76 445.12 726.18 458.78   Q 727.56 454.31 729.75 451.77   Q 732.83 448.18 739.31 444.27   Q 739.76 444.00 740.91 443.71   Q 741.38 443.60 742.50 443.08   Q 744.78 442.06 747.65 442.19   Z"></path>
  <path fill="#e8b826" d="   M 759.28 442.71   Q 757.90 442.80 756.49 442.12   Q 758.63 441.73 759.28 442.71   Z"></path>
  <path fill="#e8b826" d="   M 769.53 448.09   L 760.26 443.07   Q 761.75 442.73 764.09 444.16   Q 768.30 446.74 769.53 448.09   Z"></path>
  <path fill="#e8b826" d="   M 658.15 444.68   L 652.18 448.94   Q 654.66 446.19 658.15 444.68   Z"></path>
  <path fill="#e8b826" d="   M 771.91 450.54   Q 774.01 451.89 774.63 453.89   Q 772.87 452.58 771.91 450.54   Z"></path>
  <path fill="#0e2cae" d="   M 690.90 450.80   C 691.83 451.47 692.38 451.96 692.99 453.06   Q 693.55 454.07 694.66 455.34   Q 695.65 456.48 695.49 458.27   L 690.90 450.80   Z"></path>
  <path fill="#e8b826" d="   M 643.83 461.77   Q 644.42 456.45 647.91 453.21   L 643.83 461.77   Z"></path>
  <path fill="#0e2cae" d="   M 695.97 458.89   Q 696.57 459.56 696.41 461.04   Q 695.59 460.12 695.97 458.89   Z"></path>
  <path fill="#0e2cae" d="   M 697.33 465.29   L 697.20 466.21   L 696.53 461.20   Q 697.40 462.52 697.33 465.29   Z"></path>
  <path fill="#e8b826" d="   M 643.83 461.77   L 643.45 662.21   Q 643.10 562.98 643.20 463.75   Q 643.20 462.54 643.83 461.77   Z"></path>
  <path fill="#e8b826" d="   M 697.33 465.29   Q 697.97 466.03 697.97 466.52   Q 697.98 558.11 697.98 649.71   Q 697.98 650.31 697.32 650.96   L 697.20 466.21   L 697.33 465.29   Z"></path>
  <path fill="#181819" d="   M 1111.24 470.13   L 1117.33 473.02   Q 1118.61 475.00 1121.24 476.23   Q 1121.92 476.61 1121.67 476.70   L 1127.98 486.91   Q 1128.17 487.35 1128.29 487.18   Q 1128.22 490.31 1129.30 492.65   Q 1129.66 496.17 1129.46 500.10   Q 1129.40 501.35 1128.95 502.08   C 1128.44 502.91 1128.82 503.68 1128.34 504.75   Q 1127.11 507.46 1125.72 509.53   Q 1118.47 520.10 1106.50 522.31   Q 1101.47 522.77 1096.25 522.51   Q 1095.78 522.48 1095.04 521.80   Q 1092.14 520.34 1089.41 518.89   Q 1086.19 517.19 1084.25 515.27   Q 1079.33 510.39 1076.28 503.35   Q 1074.98 497.50 1075.53 490.72   Q 1075.68 488.88 1076.33 487.41   Q 1076.94 486.04 1077.08 485.26   Q 1077.24 484.39 1077.94 483.16   Q 1079.53 480.37 1080.29 479.54   Q 1081.67 478.07 1082.64 476.32   Q 1082.88 475.88 1083.33 475.64   Q 1085.03 474.71 1085.75 474.03   Q 1087.19 472.66 1088.04 472.34   Q 1089.60 471.76 1091.85 470.51   Q 1093.73 469.46 1094.47 469.43   Q 1095.76 469.38 1096.35 468.97   Q 1096.83 468.64 1098.21 468.63   Q 1106.35 468.63 1107.03 468.55   Q 1108.15 468.42 1108.59 469.04   Q 1108.89 469.47 1109.40 469.37   Q 1110.62 469.15 1111.24 470.13   Z"></path>
  <path fill="#181819" d="   M 1678.23 470.16   L 1684.16 473.18   Q 1684.96 473.30 1684.58 473.52   L 1691.40 480.47   Q 1691.59 480.37 1691.65 480.79   L 1694.63 486.54   Q 1695.56 487.66 1695.71 490.36   Q 1696.18 497.67 1694.84 504.18   L 1694.51 504.88   Q 1688.28 519.12 1673.81 522.41   Q 1667.41 522.79 1663.00 522.50   Q 1662.33 522.45 1661.78 521.61   Q 1656.40 519.39 1655.00 518.50   Q 1649.96 515.28 1646.67 510.40   Q 1645.56 508.75 1644.31 505.52   Q 1643.32 502.96 1642.19 500.48   Q 1642.67 498.46 1641.87 497.59   Q 1642.89 495.71 1641.92 493.53   Q 1642.56 492.43 1642.30 490.53   Q 1643.52 488.27 1643.86 485.74   Q 1643.90 485.44 1643.92 485.10   Q 1643.95 484.70 1644.04 484.48   Q 1646.82 478.10 1652.03 474.06   Q 1653.31 473.06 1656.14 471.77   Q 1659.27 470.34 1660.36 469.55   Q 1660.78 469.24 1661.29 469.36   Q 1662.38 469.62 1663.20 468.96   Q 1663.65 468.61 1664.21 468.61   L 1673.66 468.61   Q 1674.16 468.61 1674.51 468.97   Q 1675.09 469.59 1676.25 469.38   Q 1677.40 469.16 1678.23 470.16   Z"></path>
  <path fill="#0e2cae" d="   M 1117.33 473.02   L 1111.24 470.13   Q 1114.70 470.60 1117.33 473.02   Z"></path>
  <path fill="#0e2cae" d="   M 1684.16 473.18   L 1678.23 470.16   Q 1681.74 470.67 1684.16 473.18   Z"></path>
  <path fill="#0e2cae" d="   M 1121.24 476.23   Q 1118.61 475.00 1117.33 473.02   Q 1119.46 473.71 1121.24 476.23   Z"></path>
  <path fill="#0e2cae" d="   M 1691.40 480.47   L 1684.58 473.52   Q 1684.81 473.32 1685.07 473.33   Q 1685.27 473.34 1685.50 473.56   Q 1688.51 476.50 1691.42 479.53   Q 1691.64 479.77 1691.65 479.98   Q 1691.67 480.29 1691.40 480.47   Z"></path>
  <path fill="#0e2cae" d="   M 1127.98 486.91   L 1121.67 476.70   Q 1123.03 477.80 1124.19 478.97   Q 1125.29 480.07 1126.01 481.78   Q 1126.77 483.57 1127.56 485.33   Q 1127.91 486.12 1127.98 486.91   Z"></path>
  <path fill="#0e2cae" d="   M 1694.63 486.54   L 1691.65 480.79   Q 1692.18 480.86 1692.46 481.27   Q 1694.13 483.77 1694.63 486.54   Z"></path>
  <path fill="#0e2cae" d="   M 1643.86 485.74   Q 1643.52 488.27 1642.30 490.53   Q 1642.65 487.96 1643.86 485.74   Z"></path>
  <path fill="#0e2cae" d="   M 1129.30 492.65   Q 1128.22 490.31 1128.29 487.18   L 1128.55 487.47   A 0.73 0.73 0.0 0 1 1128.69 488.15   Q 1128.49 488.83 1128.89 489.18   Q 1129.26 489.52 1129.39 490.00   Q 1129.68 491.16 1129.30 492.65   Z"></path>
  <path fill="#0e2cae" d="   M 1695.71 490.36   L 1696.21 499.87   A 1.24 1.23 63.3 0 1 1695.93 500.72   Q 1695.20 501.61 1695.43 503.00   Q 1695.56 503.77 1694.84 504.18   Q 1696.18 497.67 1695.71 490.36   Z"></path>
  <path fill="#0e2cae" d="   M 1641.92 493.53   Q 1642.89 495.71 1641.87 497.59   Q 1640.90 495.31 1641.92 493.53   Z"></path>
  <path fill="#163ef0" d="   M 1919.89 509.67   L 1923.73 512.59   Q 1898.06 576.38 1872.54 639.77   C 1871.15 643.20 1873.83 646.59 1876.59 648.33   Q 1878.49 649.52 1881.25 649.81   Q 1883.80 650.08 1886.31 649.80   Q 1909.16 647.21 1925.42 632.60   Q 1928.05 630.24 1926.24 633.27   Q 1924.31 636.49 1922.56 641.61   Q 1897.14 660.41 1864.51 657.21   L 1861.62 656.98   Q 1861.14 656.94 1860.71 656.71   C 1859.35 655.96 1857.96 656.33 1856.82 655.99   Q 1856.25 655.82 1851.35 654.49   Q 1837.76 650.83 1826.43 642.28   Q 1817.37 635.45 1811.57 628.43   Q 1807.62 623.65 1804.20 618.07   Q 1801.97 614.42 1799.42 608.87   A 1.40 1.39 -55.4 0 1 1799.29 608.19   Q 1799.33 607.69 1799.11 607.41   Q 1797.78 605.69 1797.66 603.71   Q 1797.64 603.41 1797.45 603.23   L 1797.19 602.97   Q 1797.09 602.88 1797.04 602.68   L 1795.31 596.35   Q 1795.18 595.88 1795.31 595.36   Q 1795.47 594.71 1794.90 594.32   Q 1794.46 594.02 1794.46 593.47   L 1794.46 591.15   Q 1794.46 590.64 1794.08 590.27   Q 1793.86 590.07 1793.79 589.95   Q 1793.67 589.78 1793.67 589.53   Q 1793.65 586.27 1793.64 583.01   Q 1793.64 582.53 1793.53 582.38   Q 1793.37 582.15 1793.16 582.07   A 0.49 0.49 0.0 0 1 1792.86 581.61   L 1792.86 572.13   Q 1792.86 571.83 1793.13 571.73   Q 1793.34 571.65 1793.48 571.47   Q 1793.60 571.30 1793.61 571.10   L 1793.70 564.48   A 1.38 1.37 59.9 0 1 1793.87 563.84   C 1794.61 562.50 1794.21 561.25 1794.65 560.09   Q 1795.22 558.55 1795.99 554.85   Q 1796.24 553.64 1797.02 551.52   Q 1797.57 550.02 1798.10 548.18   Q 1798.78 545.79 1799.62 544.33   Q 1800.71 542.44 1800.81 541.76   Q 1801.04 540.28 1801.86 539.19   Q 1803.46 537.08 1804.73 534.08   C 1805.26 532.84 1806.36 532.33 1806.62 531.17   Q 1806.73 530.67 1807.14 530.34   Q 1808.88 528.97 1809.30 527.52   Q 1809.44 527.02 1809.89 526.74   Q 1810.88 526.14 1811.32 524.91   Q 1811.48 524.45 1811.83 524.10   Q 1819.35 516.53 1819.81 516.07   Q 1821.36 514.53 1822.65 513.96   Q 1823.07 513.77 1824.40 512.32   Q 1825.13 511.52 1826.27 510.91   Q 1827.68 510.15 1830.27 508.32   Q 1832.59 506.67 1834.29 505.84   Q 1840.99 502.55 1842.34 501.77   Q 1842.79 501.51 1843.29 501.59   Q 1844.03 501.72 1844.23 501.36   Q 1844.38 501.08 1844.69 500.99   Q 1848.59 499.93 1848.99 499.75   Q 1851.84 498.45 1853.28 498.40   A 1.02 1.02 0.0 0 0 1854.07 497.98   Q 1854.52 497.36 1855.26 497.51   Q 1857.47 497.95 1858.31 497.00   Q 1858.65 496.61 1859.16 496.71   Q 1861.10 497.10 1862.24 496.29   A 1.59 1.59 0.0 0 1 1863.13 496.01   Q 1867.16 495.95 1868.00 495.81   Q 1872.67 495.02 1875.00 495.18   Q 1883.03 495.75 1890.49 496.99   Q 1890.98 497.07 1891.38 497.38   Q 1891.89 497.78 1892.70 497.60   Q 1893.15 497.50 1893.61 497.67   L 1897.63 499.17   Q 1898.04 499.32 1898.50 499.22   Q 1898.73 499.17 1898.84 499.16   Q 1899.24 499.13 1899.56 499.36   Q 1901.34 500.66 1903.06 500.82   A 1.61 1.60 66.4 0 1 1903.89 501.15   Q 1904.90 501.92 1905.95 502.17   Q 1907.26 502.47 1908.00 502.82   Q 1914.32 505.82 1919.89 509.67   Z"></path>
  <path fill="#e8b826" d="   M 1864.51 657.21   Q 1897.14 660.41 1922.56 641.61   Q 1938.54 629.25 1947.57 612.10   Q 1950.49 606.54 1952.61 599.56   Q 1954.73 592.58 1955.24 586.24   Q 1956.45 571.41 1953.06 556.78   Q 1946.85 529.92 1923.73 512.59   L 1919.89 509.67   L 1923.45 511.22   Q 1924.07 511.48 1924.07 510.82   Q 1924.08 510.46 1924.02 510.16   Q 1923.99 510.00 1924.22 509.43   Q 1927.48 501.49 1934.70 497.48   Q 1936.11 496.70 1937.18 496.75   Q 1937.99 496.79 1939.16 496.11   A 1.42 1.42 0.0 0 1 1940.00 495.93   Q 1942.59 496.15 1943.68 495.74   Q 1945.16 495.17 1946.95 495.16   Q 1989.71 495.14 2061.36 495.17   Q 2063.75 495.17 2064.62 495.47   Q 2066.18 496.02 2067.84 495.97   Q 2069.75 495.91 2072.20 496.88   C 2074.20 497.67 2075.79 497.74 2077.52 499.37   Q 2081.54 503.14 2082.23 504.10   Q 2083.94 506.47 2084.41 511.22   Q 2084.46 511.71 2084.73 512.12   Q 2085.40 513.14 2085.05 514.04   Q 2084.44 515.60 2084.27 517.63   Q 2084.09 519.80 2083.71 521.23   Q 2083.47 522.12 2077.59 536.82   Q 2062.22 575.29 2060.90 578.65   Q 2060.11 580.67 2059.26 582.68   Q 2054.03 595.04 2026.06 665.00   Q 2023.52 671.35 2023.33 671.72   Q 2022.13 674.09 2020.92 677.30   Q 2019.05 682.21 1993.25 745.98   Q 1989.42 755.43 1988.17 757.24   Q 1984.29 762.88 1977.62 764.63   Q 1976.16 765.02 1974.95 764.92   C 1973.55 764.80 1972.84 765.70 1971.33 765.70   Q 1942.01 765.71 1855.77 765.69   Q 1853.32 765.69 1850.78 765.26   Q 1850.35 765.19 1845.84 764.66   Q 1842.78 764.31 1839.88 762.74   Q 1837.39 761.39 1835.18 758.75   Q 1828.58 750.85 1831.79 740.07   Q 1832.72 736.97 1837.28 725.85   Q 1844.47 708.29 1863.46 661.32   Q 1863.64 660.87 1863.65 660.38   Q 1863.66 660.11 1863.71 659.91   Q 1863.74 659.77 1863.88 659.63   Q 1864.80 658.70 1864.51 657.21   Z"></path>
  <path fill="#0e2cae" d="   M 1661.78 521.61   Q 1660.78 521.91 1660.27 521.72   Q 1645.13 516.00 1642.19 500.48   Q 1643.32 502.96 1644.31 505.52   Q 1645.56 508.75 1646.67 510.40   Q 1649.96 515.28 1655.00 518.50   Q 1656.40 519.39 1661.78 521.61   Z"></path>
  <path fill="#0e2cae" d="   M 1076.28 503.35   Q 1079.33 510.39 1084.25 515.27   Q 1086.19 517.19 1089.41 518.89   Q 1092.14 520.34 1095.04 521.80   Q 1090.34 521.03 1085.98 517.81   Q 1078.68 512.42 1076.28 503.35   Z"></path>
  <path fill="#0e2cae" d="   M 1694.51 504.88   Q 1693.21 510.03 1691.92 511.16   Q 1690.67 512.24 1689.88 513.52   Q 1688.87 515.15 1687.94 515.85   Q 1682.81 519.69 1680.51 520.78   Q 1678.05 521.94 1673.81 522.41   Q 1688.28 519.12 1694.51 504.88   Z"></path>
  <path fill="#0e2cae" d="   M 1125.72 509.53   Q 1124.35 512.13 1122.61 514.59   Q 1121.36 516.36 1119.50 516.99   A 1.58 1.05 -1.4 0 0 1118.75 517.52   L 1118.48 517.93   Q 1118.22 518.31 1117.64 518.45   Q 1116.73 518.67 1116.08 519.47   Q 1115.77 519.85 1115.31 520.05   Q 1113.15 521.00 1110.72 521.66   Q 1110.64 521.68 1109.11 522.34   Q 1107.96 522.83 1106.50 522.31   Q 1118.47 520.10 1125.72 509.53   Z"></path>
  <path fill="#0e2cae" d="   M 1922.56 641.61   Q 1924.31 636.49 1926.24 633.27   Q 1928.05 630.24 1925.42 632.60   Q 1909.16 647.21 1886.31 649.80   Q 1883.80 650.08 1881.25 649.81   Q 1878.49 649.52 1876.59 648.33   C 1873.83 646.59 1871.15 643.20 1872.54 639.77   Q 1898.06 576.38 1923.73 512.59   Q 1946.85 529.92 1953.06 556.78   Q 1956.45 571.41 1955.24 586.24   Q 1954.73 592.58 1952.61 599.56   Q 1950.49 606.54 1947.57 612.10   Q 1938.54 629.25 1922.56 641.61   Z"></path>
  <path fill="#e8b826" d="   M 943.60 549.60   Q 940.76 550.31 937.84 549.55   Q 940.70 548.42 943.60 549.60   Z"></path>
  <path fill="#e8b826" d="   M 1025.08 549.61   Q 1021.62 550.25 1018.22 549.59   Q 1021.63 548.39 1025.08 549.61   Z"></path>
  <path fill="#0e2cae" d="   M 1206.22 562.25   Q 1201.47 556.70 1199.36 555.14   Q 1190.62 548.69 1179.92 549.81   Q 1178.68 549.94 1176.15 550.71   Q 1174.37 551.24 1172.35 551.60   L 1175.59 550.07   Q 1176.05 549.86 1176.56 549.93   Q 1177.83 550.13 1178.83 549.42   Q 1179.25 549.11 1179.77 549.11   L 1187.20 549.10   Q 1187.67 549.10 1188.05 549.40   Q 1188.99 550.18 1190.56 549.91   Q 1191.08 549.81 1191.43 550.22   Q 1192.07 550.98 1192.76 550.74   Q 1193.30 550.55 1193.70 550.96   Q 1194.30 551.60 1195.69 551.87   Q 1196.18 551.96 1196.53 552.32   Q 1197.78 553.59 1198.47 553.87   Q 1199.93 554.47 1200.55 555.28   Q 1201.46 556.45 1205.01 559.75   Q 1205.55 560.25 1205.78 560.90   Q 1206.01 561.58 1206.22 562.25   Z"></path>
  <path fill="#e8b826" d="   M 1456.34 549.56   L 1449.79 549.74   Q 1450.12 549.21 1450.41 549.17   Q 1453.59 548.72 1456.34 549.56   Z"></path>
  <path fill="#e8b826" d="   M 1672.20 549.66   Q 1669.13 550.17 1666.18 549.66   Q 1669.26 548.30 1672.20 549.66   Z"></path>
  <path fill="#181819" d="   M 1457.74 550.07   L 1460.52 550.61   Q 1462.47 550.52 1463.41 551.64   L 1465.95 553.04   Q 1466.71 553.15 1466.44 553.28   Q 1475.19 558.70 1478.79 568.04   L 1479.39 569.47   Q 1479.57 569.91 1479.63 570.40   L 1480.01 574.03   L 1479.76 605.43   Q 1479.76 605.72 1479.91 605.97   Q 1480.28 606.54 1479.82 606.33   Q 1480.21 614.76 1478.93 622.06   L 1475.74 632.25   Q 1475.72 632.64 1475.46 632.90   Q 1469.80 646.96 1459.93 658.42   L 1454.99 663.45   Q 1454.67 663.93 1454.69 663.64   Q 1450.58 666.98 1446.34 670.00   Q 1444.69 671.17 1442.25 672.51   Q 1440.82 673.30 1438.20 674.98   Q 1437.73 675.29 1437.25 675.32   L 1436.82 675.36   Q 1436.36 675.39 1436.25 675.80   Q 1436.03 676.54 1435.33 676.31   A 0.87 0.86 39.6 0 0 1434.64 676.38   Q 1432.34 677.65 1429.76 678.46   Q 1429.47 678.56 1429.11 678.90   Q 1428.82 679.18 1428.53 679.45   L 1427.68 679.56   L 1415.92 682.84   Q 1409.65 684.41 1402.80 684.41   Q 1326.74 684.41 1234.92 684.36   C 1230.84 684.36 1227.09 683.98 1221.93 683.49   A 1.40 1.40 0.0 0 1 1221.17 683.17   Q 1220.33 682.48 1218.98 682.81   Q 1218.44 682.94 1217.93 682.72   L 1214.61 681.25   Q 1212.54 680.25 1210.28 679.47   Q 1208.96 679.02 1208.27 679.53   Q 1207.29 680.25 1207.77 682.01   Q 1207.52 682.49 1207.49 682.96   Q 1205.02 690.36 1202.54 697.53   Q 1201.06 701.81 1193.97 714.22   Q 1192.61 715.96 1191.39 717.83   Q 1189.75 720.36 1188.89 721.47   Q 1181.02 731.67 1171.21 740.12   Q 1171.40 740.37 1170.72 740.66   L 1167.20 743.50   L 1164.17 745.69   Q 1158.54 749.15 1152.79 752.37   Q 1150.53 753.64 1146.52 755.31   Q 1143.30 756.64 1140.22 758.29   Q 1139.63 758.41 1139.30 758.67   Q 1138.91 758.15 1138.32 758.66   A 1.34 1.34 0.0 0 1 1137.47 758.98   Q 1135.91 759.02 1135.25 759.97   L 1133.90 760.64   Q 1133.48 760.85 1133.01 760.84   Q 1132.24 760.81 1131.88 761.27   Q 1131.59 761.63 1131.13 761.71   L 1121.38 763.51   L 1110.69 764.79   L 1105.62 765.12   L 1098.68 765.15   L 1094.00 764.80   L 1082.37 763.27   Q 1080.07 763.67 1078.41 762.70   Q 1077.99 762.45 1077.51 762.50   Q 1075.85 762.67 1075.04 761.67   Q 1072.55 760.27 1069.90 760.36   Q 1069.32 759.99 1068.42 760.01   Q 1067.92 760.03 1067.56 759.69   Q 1066.85 759.06 1066.03 759.30   Q 1065.52 759.45 1065.25 758.99   Q 1064.81 758.24 1063.73 758.43   Q 1063.20 758.53 1062.77 758.21   Q 1061.86 757.54 1059.00 756.46   Q 1053.75 754.49 1042.82 748.00   Q 1041.59 747.27 1039.43 745.51   Q 1037.53 743.96 1035.84 742.80   Q 1034.23 741.71 1033.20 740.67   Q 1032.01 739.46 1030.82 738.26   Q 1030.78 738.14 1030.75 737.99   A 0.60 0.60 0.0 0 0 1030.59 737.68   L 1017.15 723.77   Q 1013.85 720.49 1011.03 715.98   Q 1005.17 706.61 1001.05 696.46   Q 1000.64 695.46 1000.75 695.02   A 0.75 0.64 -70.1 0 0 1000.44 694.22   Q 999.85 693.90 999.90 693.21   Q 999.94 692.77 999.81 692.44   L 998.29 688.36   Q 998.12 687.91 998.29 687.39   Q 998.60 686.41 997.73 685.87   Q 997.29 685.59 997.40 685.08   Q 997.70 683.68 997.01 682.70   Q 996.73 682.30 996.69 681.82   L 996.44 679.06   L 995.19 663.26   L 994.81 656.20   L 994.53 609.34   L 994.36 575.98   L 995.03 571.33   Q 996.25 564.97 999.93 560.04   Q 999.91 559.58 1000.46 559.20   Q 1002.46 557.88 1003.88 555.97   C 1004.60 555.07 1005.11 554.52 1006.27 554.02   Q 1007.23 553.61 1008.14 552.66   Q 1009.10 551.65 1010.74 551.58   Q 1011.23 551.56 1011.63 551.28   Q 1012.69 550.51 1014.26 550.59   Q 1015.62 550.61 1017.20 550.06   L 1018.22 549.59   Q 1021.62 550.25 1025.08 549.61   Q 1025.19 549.92 1026.21 550.07   L 1031.50 551.52   Q 1031.62 551.47 1031.74 551.43   Q 1033.02 552.42 1034.43 553.19   Q 1036.47 554.31 1037.15 554.82   Q 1044.93 560.62 1047.39 569.83   Q 1047.89 570.24 1047.61 570.11   Q 1047.88 572.43 1048.19 574.70   Q 1048.51 577.05 1048.48 579.32   Q 1047.94 618.39 1048.84 657.47   L 1049.26 660.02   Q 1048.74 662.91 1049.66 665.17   Q 1049.72 666.53 1050.18 667.42   Q 1049.47 669.19 1050.46 670.56   Q 1050.72 671.18 1051.05 671.40   Q 1050.49 672.65 1050.99 674.24   Q 1054.50 685.46 1062.74 693.99   Q 1064.61 695.15 1065.70 697.03   Q 1073.07 704.00 1082.74 707.49   L 1084.47 707.81   Q 1084.93 707.89 1085.24 708.23   Q 1085.65 708.68 1086.40 708.67   Q 1091.52 710.75 1097.01 710.89   L 1109.19 710.34   Q 1110.36 710.89 1111.95 710.26   L 1118.65 708.48   Q 1121.03 708.24 1123.08 706.96   L 1133.47 701.04   Q 1134.66 701.28 1135.11 699.77   Q 1139.64 695.82 1143.77 691.38   Q 1144.51 690.59 1145.21 689.33   Q 1145.84 688.21 1146.62 687.21   Q 1147.82 685.66 1148.68 684.18   Q 1149.61 682.58 1150.55 681.02   Q 1153.76 676.78 1154.30 671.55   Q 1154.12 668.29 1155.37 666.41   L 1155.67 661.14   Q 1156.29 659.75 1156.10 656.99   Q 1156.77 651.42 1156.81 645.75   Q 1157.00 614.00 1156.40 582.25   Q 1156.22 572.56 1158.37 564.76   Q 1158.87 562.72 1159.95 562.07   Q 1163.22 558.70 1166.59 555.60   Q 1168.76 553.60 1171.50 552.50   Q 1171.78 552.38 1172.02 551.78   Q 1172.72 551.57 1172.35 551.60   Q 1174.37 551.24 1176.15 550.71   Q 1178.68 549.94 1179.92 549.81   Q 1190.62 548.69 1199.36 555.14   Q 1201.47 556.70 1206.22 562.25   Q 1208.12 564.86 1209.14 568.10   Q 1209.27 567.82 1209.41 568.20   Q 1209.05 569.27 1209.92 570.08   L 1210.14 571.97   L 1210.68 576.41   L 1210.68 590.74   Q 1209.60 599.15 1210.62 607.56   L 1210.98 610.17   Q 1210.83 611.53 1211.45 612.90   Q 1211.64 613.06 1211.61 613.20   Q 1212.22 618.32 1215.96 621.50   L 1219.01 624.70   Q 1225.80 630.38 1234.56 630.23   L 1400.69 630.08   Q 1402.88 630.85 1404.98 629.81   Q 1406.31 629.72 1407.29 629.26   Q 1409.31 629.55 1411.55 628.54   Q 1421.78 623.87 1425.52 613.18   Q 1425.93 611.98 1425.92 611.04   C 1425.90 609.19 1426.70 607.67 1426.70 605.54   Q 1426.75 592.56 1426.50 588.26   Q 1426.01 579.74 1426.88 573.30   Q 1426.92 573.00 1426.73 572.56   Q 1426.53 572.08 1426.72 571.59   Q 1427.27 570.20 1427.47 568.36   Q 1427.58 567.29 1428.74 565.21   Q 1429.81 563.28 1430.66 561.11   Q 1434.00 556.63 1436.05 555.29   Q 1439.78 552.85 1443.87 551.09   Q 1444.72 550.72 1445.69 550.65   Q 1447.43 550.67 1448.98 550.09   L 1449.79 549.74   L 1456.34 549.56   L 1457.74 550.07   Z"></path>
  <path fill="#181819" d="   M 1666.18 549.66   Q 1669.13 550.17 1672.20 549.66   Q 1672.46 549.89 1673.45 550.07   Q 1674.91 550.72 1676.15 550.51   Q 1676.57 550.79 1677.27 550.81   Q 1689.77 555.54 1694.60 568.03   Q 1694.71 568.10 1694.83 568.17   Q 1694.54 569.76 1695.36 570.82   Q 1695.40 572.11 1695.93 572.51   Q 1695.26 587.72 1696.13 602.83   Q 1696.31 642.12 1696.18 681.50   Q 1696.17 684.79 1694.56 694.50   L 1693.02 701.02   Q 1691.44 705.39 1690.33 710.04   Q 1689.73 712.54 1684.29 723.58   Q 1682.28 727.65 1679.66 731.51   Q 1676.21 736.59 1674.05 738.80   Q 1670.74 742.18 1668.60 744.34   Q 1665.43 747.53 1662.77 749.49   Q 1649.42 759.36 1632.99 763.36   Q 1632.88 763.47 1632.78 763.59   L 1624.76 764.93   L 1623.04 765.00   L 1611.43 765.18   L 1607.53 764.37   Q 1605.43 762.72 1602.67 762.20   Q 1602.25 762.12 1601.93 761.84   Q 1601.03 761.03 1599.93 760.53   Q 1598.87 760.05 1597.55 758.63   Q 1595.92 756.88 1593.89 755.49   Q 1593.32 754.86 1592.44 754.13   Q 1591.96 753.73 1591.77 753.23   Q 1591.54 752.62 1591.46 752.11   Q 1590.78 749.39 1589.17 746.96   Q 1589.20 746.33 1588.72 745.57   Q 1588.46 745.15 1588.46 744.65   L 1588.43 733.21   Q 1589.02 731.99 1589.06 730.95   Q 1589.23 730.28 1589.19 729.71   L 1590.99 725.47   Q 1590.80 725.29 1591.21 724.80   Q 1593.84 721.68 1596.66 718.80   Q 1597.87 717.57 1599.83 716.24   Q 1601.53 715.09 1603.11 713.80   Q 1604.17 712.58 1605.87 712.56   Q 1606.39 712.55 1606.77 712.20   Q 1607.58 711.45 1608.98 711.84   A 0.80 0.80 0.0 0 0 1609.82 711.55   Q 1610.40 710.80 1612.24 710.94   Q 1614.05 711.07 1619.52 710.88   L 1622.42 710.33   C 1623.36 709.19 1624.77 709.23 1625.72 708.78   Q 1629.20 707.12 1631.81 704.55   Q 1633.99 702.40 1636.80 697.78   Q 1637.31 696.94 1637.62 695.55   Q 1637.88 694.35 1638.63 693.31   Q 1639.10 692.67 1639.11 692.42   Q 1639.12 692.13 1639.10 692.03   A 1.05 0.89 62.6 0 1 1639.31 691.12   Q 1640.00 690.39 1639.89 689.44   Q 1639.82 688.91 1640.19 688.51   Q 1641.11 687.55 1640.66 685.67   Q 1640.54 685.17 1640.83 684.73   Q 1641.69 683.44 1641.74 681.39   Q 1643.11 672.01 1642.68 662.50   Q 1642.65 661.88 1642.04 661.69   L 1642.15 590.99   Q 1642.44 590.68 1642.46 590.24   Q 1642.81 583.74 1642.02 577.01   Q 1642.50 575.81 1642.33 573.29   Q 1643.44 572.09 1643.02 569.89   L 1643.20 569.27   L 1646.15 562.02   Q 1646.16 561.85 1646.17 561.67   Q 1651.27 555.49 1658.25 551.92   Q 1659.97 551.03 1665.65 550.08   L 1666.18 549.66   Z"></path>
  <path fill="#0e2cae" d="   M 936.38 550.01   C 933.88 550.84 931.19 551.38 928.99 552.52   Q 924.17 555.01 920.42 558.91   C 918.95 560.44 917.78 562.69 916.31 564.52   L 917.02 562.34   A 1.26 1.26 0.0 0 1 917.59 561.63   Q 918.31 561.23 918.53 560.44   Q 918.66 559.96 918.99 559.58   Q 923.99 553.88 930.91 550.98   Q 931.38 550.78 931.89 550.83   Q 932.58 550.90 933.09 550.35   A 1.19 1.18 -68.0 0 1 933.97 549.98   L 936.38 550.01   Z"></path>
  <path fill="#e8b826" d="   M 956.41 554.33   Q 954.98 554.02 953.75 553.25   Q 952.11 552.23 951.27 551.94   Q 948.38 550.97 945.41 550.13   Q 947.30 549.49 948.53 550.43   Q 948.93 550.74 949.08 550.76   Q 949.27 550.77 949.46 550.73   Q 949.80 550.66 950.10 550.83   L 956.41 554.33   Z"></path>
  <path fill="#0e2cae" d="   M 1017.20 550.06   Q 1015.62 550.61 1014.26 550.59   Q 1014.82 549.52 1017.20 550.06   Z"></path>
  <path fill="#0e2cae" d="   M 1031.50 551.52   L 1026.21 550.07   Q 1027.83 549.56 1029.11 550.43   Q 1029.51 550.71 1030.00 550.69   Q 1031.24 550.63 1031.50 551.52   Z"></path>
  <path fill="#0e2cae" d="   M 1448.98 550.09   Q 1447.43 550.67 1445.69 550.65   Q 1446.33 549.44 1448.98 550.09   Z"></path>
  <path fill="#e8b826" d="   M 1460.52 550.61   L 1457.74 550.07   Q 1459.79 549.55 1460.52 550.61   Z"></path>
  <path fill="#0e2cae" d="   M 1558.95 550.04   Q 1556.35 550.87 1554.59 550.33   Q 1556.27 549.61 1558.95 550.04   Z"></path>
  <path fill="#181819" d="   M 1563.30 550.03   L 1567.08 550.80   L 1572.77 552.25   Q 1573.62 552.11 1573.96 553.11   Q 1583.67 558.54 1587.28 570.01   L 1587.99 573.81   Q 1587.21 626.19 1587.60 678.50   Q 1587.61 678.97 1587.92 680.04   L 1586.74 693.75   Q 1584.64 701.91 1582.45 709.94   Q 1581.05 715.10 1574.79 726.80   Q 1572.82 730.48 1565.99 739.20   Q 1563.98 741.04 1562.03 743.03   Q 1553.67 751.54 1543.00 757.11   Q 1541.42 758.79 1540.56 758.20   L 1530.04 762.47   L 1529.20 762.54   Q 1527.58 762.46 1526.24 763.12   Q 1525.80 763.42 1525.53 763.82   Q 1525.61 763.40 1525.42 763.42   Q 1521.41 763.84 1517.41 764.82   L 1514.66 765.16   L 1504.69 765.01   Q 1504.22 764.83 1503.22 764.84   C 1501.97 763.92 1500.51 764.15 1499.30 763.71   Q 1497.11 762.91 1494.91 762.19   Q 1494.71 762.12 1494.62 762.16   Q 1494.44 762.23 1494.45 762.45   L 1493.85 762.26   Q 1493.74 761.71 1493.48 761.55   Q 1488.25 758.34 1484.46 753.20   Q 1484.42 752.98 1484.27 752.80   Q 1483.80 750.34 1482.15 748.58   Q 1482.01 748.52 1482.02 748.19   L 1481.38 746.39   Q 1480.25 745.15 1480.49 743.37   Q 1480.56 742.86 1480.26 742.51   L 1479.96 742.17   Q 1479.70 741.86 1479.70 741.39   L 1479.68 734.47   Q 1479.68 733.90 1480.05 733.44   Q 1480.65 732.72 1480.46 731.60   A 1.44 1.43 -36.9 0 1 1480.58 730.71   L 1481.32 729.23   Q 1481.61 728.63 1481.66 728.04   L 1483.74 724.06   L 1489.10 717.92   Q 1491.28 715.70 1494.24 714.21   Q 1494.33 714.16 1495.10 713.62   Q 1495.72 713.20 1496.31 713.35   Q 1496.82 713.48 1497.17 713.08   Q 1497.79 712.40 1499.13 712.62   A 0.53 0.45 -66.8 0 0 1499.61 712.38   L 1499.80 712.09   A 0.77 0.70 -68.8 0 1 1500.49 711.74   Q 1503.21 712.05 1504.07 711.25   A 1.01 1.01 0.0 0 1 1504.71 710.98   L 1513.52 710.60   Q 1516.22 710.98 1517.99 708.62   Q 1524.94 704.57 1529.00 697.73   Q 1529.64 696.66 1529.88 695.78   Q 1530.16 694.73 1530.93 693.99   A 1.07 1.07 0.0 0 0 1531.25 693.13   Q 1531.15 692.01 1531.92 691.32   Q 1534.55 684.90 1533.35 679.36   Q 1533.65 676.02 1533.65 673.75   Q 1533.61 626.37 1533.63 579.00   Q 1533.63 576.38 1534.02 570.80   Q 1534.28 567.19 1537.77 562.00   Q 1542.63 556.03 1549.15 552.60   Q 1549.16 552.59 1549.16 552.58   Q 1549.14 552.46 1549.12 552.34   Q 1549.63 551.66 1550.70 551.58   Q 1552.41 552.08 1553.11 550.84   Q 1554.05 550.70 1554.59 550.33   Q 1556.35 550.87 1558.95 550.04   L 1563.30 550.03   Z"></path>
  <path fill="#e8b826" d="   M 1567.60 550.54   Q 1567.17 550.82 1567.08 550.80   L 1563.30 550.03   Q 1566.45 549.49 1567.60 550.54   Z"></path>
  <path fill="#e8b826" d="   M 1665.65 550.08   Q 1659.97 551.03 1658.25 551.92   Q 1651.27 555.49 1646.17 561.67   Q 1650.73 555.32 1652.66 554.40   Q 1656.08 552.78 1659.43 550.96   A 1.63 1.63 0.0 0 1 1660.38 550.77   Q 1661.24 550.87 1661.62 550.37   Q 1661.94 549.95 1662.47 549.97   L 1665.65 550.08   Z"></path>
  <path fill="#e8b826" d="   M 1676.15 550.51   Q 1674.91 550.72 1673.45 550.07   Q 1675.57 549.53 1676.15 550.51   Z"></path>
  <path fill="#0e2cae" d="   M 1572.77 552.25   L 1567.08 550.80   Q 1567.17 550.82 1567.60 550.54   Q 1570.53 550.64 1572.77 552.25   Z"></path>
  <path fill="#0e2cae" d="   M 1553.11 550.84   Q 1552.41 552.08 1550.70 551.58   Q 1551.74 550.47 1553.11 550.84   Z"></path>
  <path fill="#e8b826" d="   M 1694.60 568.03   Q 1689.77 555.54 1677.27 550.81   Q 1680.18 551.34 1683.07 552.89   Q 1683.72 553.23 1685.31 554.64   Q 1686.01 555.25 1687.49 556.11   Q 1688.72 556.82 1690.22 559.49   Q 1690.47 559.92 1690.84 560.24   Q 1691.71 560.97 1692.06 561.51   Q 1693.99 564.54 1694.60 568.03   Z"></path>
  <path fill="#e8b826" d="   M 1047.39 569.83   Q 1044.93 560.62 1037.15 554.82   Q 1036.47 554.31 1034.43 553.19   Q 1033.02 552.42 1031.74 551.43   Q 1033.36 552.22 1034.89 552.91   C 1036.04 553.43 1036.93 554.72 1037.95 554.95   A 2.59 2.08 71.4 0 1 1039.24 555.78   Q 1040.79 557.64 1042.59 559.13   Q 1043.66 560.01 1044.66 562.24   Q 1045.26 563.61 1046.89 566.50   Q 1047.31 567.25 1047.34 568.11   Q 1047.36 569.00 1047.39 569.83   Z"></path>
  <path fill="#0e2cae" d="   M 1465.95 553.04   L 1463.41 551.64   Q 1465.33 551.10 1465.95 553.04   Z"></path>
  <path fill="#0e2cae" d="   M 1172.02 551.78   Q 1171.78 552.38 1171.50 552.50   Q 1168.76 553.60 1166.59 555.60   Q 1163.22 558.70 1159.95 562.07   Q 1161.75 558.30 1165.37 555.83   Q 1167.94 554.09 1170.53 552.27   Q 1171.27 551.75 1172.02 551.78   Z"></path>
  <path fill="#0e2cae" d="   M 1549.12 552.34   Q 1549.14 552.46 1549.16 552.58   Q 1549.16 552.59 1549.15 552.60   Q 1542.63 556.03 1537.77 562.00   Q 1541.47 555.30 1549.12 552.34   Z"></path>
  <path fill="#e8b826" d="   M 1587.28 570.01   Q 1583.67 558.54 1573.96 553.11   Q 1576.02 553.46 1577.54 554.77   Q 1579.17 556.18 1579.68 556.45   Q 1581.19 557.23 1581.71 558.36   Q 1582.49 560.06 1583.66 560.89   Q 1584.06 561.18 1584.25 561.65   Q 1585.13 563.80 1586.82 566.99   Q 1587.47 568.23 1587.28 570.01   Z"></path>
  <path fill="#0e2cae" d="   M 1478.79 568.04   Q 1475.19 558.70 1466.44 553.28   Q 1468.53 553.60 1469.20 554.31   Q 1472.06 557.32 1475.10 560.15   Q 1475.47 560.50 1475.55 561.00   Q 1475.69 561.95 1476.60 562.56   Q 1477.03 562.84 1477.27 563.30   Q 1478.57 565.78 1478.79 568.04   Z"></path>
  <path fill="#e8b826" d="   M 961.54 559.44   Q 958.89 557.91 957.89 555.50   Q 960.48 556.82 961.54 559.44   Z"></path>
  <path fill="#e8b826" d="   M 1003.88 555.97   Q 1002.46 557.88 1000.46 559.20   Q 1001.40 556.79 1003.88 555.97   Z"></path>
  <path fill="#e8b826" d="   M 995.03 571.33   Q 995.06 564.25 999.93 560.04   Q 996.25 564.97 995.03 571.33   Z"></path>
  <path fill="#0e2cae" d="   M 962.09 560.18   Q 965.61 563.66 966.07 568.53   L 962.09 560.18   Z"></path>
  <path fill="#0e2cae" d="   M 1407.29 629.26   Q 1413.41 627.92 1415.52 625.78   Q 1417.90 623.37 1421.66 619.60   A 0.65 0.65 0.0 0 0 1421.84 619.08   Q 1421.83 618.93 1421.82 618.78   Q 1421.82 618.75 1421.98 618.54   Q 1423.77 616.28 1424.86 613.62   Q 1425.05 613.16 1424.94 612.67   Q 1424.73 611.72 1425.33 611.09   Q 1425.73 610.65 1425.73 610.08   L 1425.74 573.28   Q 1425.74 572.78 1426.10 572.43   C 1427.32 571.26 1425.89 569.18 1427.08 568.20   Q 1427.52 567.84 1427.28 567.32   Q 1427.01 566.72 1427.55 566.22   Q 1427.83 565.96 1428.02 565.62   L 1430.66 561.11   Q 1429.81 563.28 1428.74 565.21   Q 1427.58 567.29 1427.47 568.36   Q 1427.27 570.20 1426.72 571.59   Q 1426.53 572.08 1426.73 572.56   Q 1426.92 573.00 1426.88 573.30   Q 1426.01 579.74 1426.50 588.26   Q 1426.75 592.56 1426.70 605.54   C 1426.70 607.67 1425.90 609.19 1425.92 611.04   Q 1425.93 611.98 1425.52 613.18   Q 1421.78 623.87 1411.55 628.54   Q 1409.31 629.55 1407.29 629.26   Z"></path>
  <path fill="#0e2cae" d="   M 1646.15 562.02   L 1643.20 569.27   Q 1643.17 567.39 1644.16 564.67   Q 1644.90 562.63 1646.15 562.02   Z"></path>
  <path fill="#0e2cae" d="   M 1209.14 568.10   Q 1208.12 564.86 1206.22 562.25   Q 1207.73 562.89 1208.16 564.74   Q 1208.27 565.22 1208.58 565.61   Q 1209.43 566.72 1209.14 568.10   Z"></path>
  <path fill="#e8b826" d="   M 1156.10 656.99   Q 1156.00 615.17 1156.10 573.43   Q 1156.10 572.35 1156.50 571.66   Q 1156.98 570.83 1156.86 569.85   Q 1156.74 568.87 1157.36 567.24   Q 1157.84 565.97 1158.37 564.76   Q 1156.22 572.56 1156.40 582.25   Q 1157.00 614.00 1156.81 645.75   Q 1156.77 651.42 1156.10 656.99   Z"></path>
  <path fill="#0e2cae" d="   M 914.89 566.87   L 913.83 571.70   Q 913.34 569.07 914.89 566.87   Z"></path>
  <path fill="#0e2cae" d="   M 1209.41 568.20   Q 1210.01 569.02 1209.92 570.08   Q 1209.05 569.27 1209.41 568.20   Z"></path>
  <path fill="#0e2cae" d="   M 1695.36 570.82   Q 1694.54 569.76 1694.83 568.17   Q 1695.71 568.89 1695.36 570.82   Z"></path>
  <path fill="#0e2cae" d="   M 1643.02 569.89   Q 1643.44 572.09 1642.33 573.29   Q 1642.35 572.15 1642.22 571.16   Q 1642.16 570.65 1642.36 570.40   Q 1642.59 570.12 1643.02 569.89   Z"></path>
  <path fill="#e8b826" d="   M 1047.61 570.11   Q 1047.76 570.21 1047.89 570.32   Q 1048.16 570.54 1048.13 570.89   C 1047.97 572.96 1048.92 574.48 1048.93 576.66   Q 1049.14 617.05 1048.84 657.47   Q 1047.94 618.39 1048.48 579.32   Q 1048.51 577.05 1048.19 574.70   Q 1047.88 572.43 1047.61 570.11   Z"></path>
  <path fill="#0e2cae" d="   M 995.03 571.33   L 994.36 575.98   Q 993.69 572.57 995.03 571.33   Z"></path>
  <path fill="#e8b826" d="   M 1210.68 576.41   L 1210.14 571.97   Q 1211.22 573.96 1210.68 576.41   Z"></path>
  <path fill="#0e2cae" d="   M 912.92 605.47   Q 912.91 589.22 912.95 573.00   Q 912.95 572.63 913.59 572.21   Q 913.98 572.82 913.92 573.33   C 913.58 576.30 913.27 579.15 913.40 582.22   Q 913.71 589.36 913.88 596.49   Q 913.99 601.12 912.92 605.47   Z"></path>
  <path fill="#0e2cae" d="   M 1696.13 602.83   Q 1695.26 587.72 1695.93 572.51   L 1696.13 602.83   Z"></path>
  <path fill="#e8b826" d="   M 967.35 573.25   Q 968.24 589.93 967.19 606.57   L 967.35 573.25   Z"></path>
  <path fill="#0e2cae" d="   M 1587.99 573.81   Q 1588.71 625.81 1588.25 677.77   Q 1588.24 678.60 1587.92 680.04   Q 1587.61 678.97 1587.60 678.50   Q 1587.21 626.19 1587.99 573.81   Z"></path>
  <path fill="#0e2cae" d="   M 1480.01 574.03   Q 1480.46 574.16 1480.46 574.57   Q 1480.49 589.96 1480.49 605.36   Q 1480.49 606.30 1479.82 606.33   Q 1480.28 606.54 1479.91 605.97   Q 1479.76 605.72 1479.76 605.43   L 1480.01 574.03   Z"></path>
  <path fill="#0e2cae" d="   M 1642.02 577.01   Q 1642.81 583.74 1642.46 590.24   Q 1642.44 590.68 1642.15 590.99   Q 1641.49 591.12 1641.44 590.25   Q 1641.08 583.70 1642.02 577.01   Z"></path>
  <path fill="#0e2cae" d="   M 533.72 592.79   Q 529.86 585.55 523.14 580.16   Q 527.57 582.85 531.04 587.19   Q 533.20 589.90 533.72 592.79   Z"></path>
  <path fill="#e8b826" d="   M 1210.68 590.74   L 1210.62 607.56   Q 1209.60 599.15 1210.68 590.74   Z"></path>
  <path fill="#0e2cae" d="   M 482.88 595.05   Q 483.01 596.57 482.29 597.70   Q 481.79 595.17 482.88 595.05   Z"></path>
  <path fill="#0e2cae" d="   M 535.76 599.93   Q 536.33 605.87 536.27 615.01   Q 536.01 648.44 535.80 658.21   Q 535.03 629.20 535.76 599.93   Z"></path>
  <path fill="#0e2cae" d="   M 481.75 600.44   Q 482.38 602.49 482.26 604.76   Q 482.14 607.14 482.21 608.72   Q 482.30 610.77 481.97 612.73   Q 481.73 612.62 481.55 612.43   Q 481.41 612.26 481.40 611.97   Q 481.19 606.19 481.75 600.44   Z"></path>
  <path fill="#0e2cae" d="   M 779.14 609.99   Q 778.03 608.03 778.77 605.35   Q 779.82 607.46 779.14 609.99   Z"></path>
  <path fill="#0e2cae" d="   M 912.20 610.72   Q 911.68 608.42 912.80 606.70   Q 912.93 608.83 912.20 610.72   Z"></path>
  <path fill="#e8b826" d="   M 994.81 656.20   Q 994.28 656.16 994.28 655.47   Q 994.31 633.11 994.12 610.75   Q 994.11 609.87 994.53 609.34   L 994.81 656.20   Z"></path>
  <path fill="#0e2cae" d="   M 804.77 630.32   Q 799.36 630.17 797.13 629.38   Q 784.65 624.99 779.75 612.28   Q 779.15 610.73 779.14 609.99   Q 779.97 610.38 780.15 611.44   Q 780.33 612.51 780.59 612.99   Q 781.95 615.56 783.74 618.67   Q 784.52 620.02 785.59 621.06   Q 785.86 621.32 787.79 623.27   Q 789.18 624.68 791.08 625.61   Q 792.34 626.21 793.68 627.59   Q 793.96 627.88 794.36 627.97   L 804.77 630.32   Z"></path>
  <path fill="#e8b826" d="   M 1211.45 612.90   Q 1210.83 611.53 1210.98 610.17   Q 1212.00 610.78 1211.45 612.90   Z"></path>
  <path fill="#e8b826" d="   M 966.73 612.74   Q 966.94 614.50 966.90 616.23   Q 966.87 617.55 966.31 618.69   Q 965.80 619.72 966.06 621.18   Q 966.16 621.69 965.83 622.11   Q 964.95 623.21 965.23 624.73   A 0.87 0.87 0.0 0 1 964.91 625.57   C 963.77 626.48 965.01 627.91 964.04 628.86   A 1.03 1.03 0.0 0 0 963.75 629.39   Q 962.86 633.76 960.33 637.50   Q 960.70 636.20 962.47 631.96   Q 965.45 624.79 966.73 612.74   Z"></path>
  <path fill="#e8b826" d="   M 1211.61 613.20   Q 1212.42 613.64 1212.43 614.58   Q 1212.43 615.22 1212.60 615.56   L 1214.10 618.67   Q 1214.31 619.10 1214.67 619.40   Q 1215.71 620.29 1215.96 621.50   Q 1212.22 618.32 1211.61 613.20   Z"></path>
  <path fill="#e8b826" d="   M 725.79 618.50   Q 725.07 617.40 725.50 615.23   Q 726.23 616.84 725.79 618.50   Z"></path>
  <path fill="#0e2cae" d="   M 727.77 626.79   Q 726.81 625.94 726.86 624.33   Q 726.88 623.84 726.64 623.41   Q 725.79 621.91 726.30 620.18   L 727.77 626.79   Z"></path>
  <path fill="#0e2cae" d="   M 1478.93 622.06   Q 1479.05 624.05 1478.28 625.17   Q 1478.00 625.59 1478.05 626.08   Q 1478.14 626.96 1477.59 627.27   A 0.70 0.70 0.0 0 0 1477.26 628.04   Q 1477.49 629.03 1476.77 629.72   Q 1476.40 630.09 1476.48 630.60   Q 1476.66 631.87 1475.74 632.25   L 1478.93 622.06   Z"></path>
  <path fill="#e8b826" d="   M 1227.45 628.85   Q 1228.18 628.82 1228.53 629.12   L 1234.56 630.23   Q 1225.80 630.38 1219.01 624.70   Q 1222.87 626.65 1226.35 628.71   Q 1226.60 628.86 1227.45 628.85   Z"></path>
  <path fill="#0e2cae" d="   M 1228.53 629.12   Q 1228.18 628.82 1227.45 628.85   Q 1228.53 628.74 1228.53 629.12   Z"></path>
  <path fill="#0e2cae" d="   M 1404.98 629.81   Q 1402.88 630.85 1400.69 630.08   Q 1402.78 629.25 1404.98 629.81   Z"></path>
  <path fill="#0e2cae" d="   M 1475.46 632.90   Q 1475.25 635.05 1474.31 637.04   Q 1471.89 642.21 1470.99 643.94   Q 1470.68 644.52 1469.52 646.04   C 1468.74 647.05 1468.54 648.21 1467.85 649.14   Q 1467.39 649.77 1463.35 655.12   Q 1461.89 657.07 1459.93 658.42   Q 1469.80 646.96 1475.46 632.90   Z"></path>
  <path fill="#e8b826" d="   M 958.45 641.13   Q 957.24 645.01 954.32 648.07   Q 954.24 648.01 954.16 647.95   L 958.45 641.13   Z"></path>
  <path fill="#0e2cae" d="   M 954.32 648.07   L 953.73 649.50   Q 953.54 649.97 953.13 650.28   Q 952.48 650.78 952.28 651.73   A 1.28 1.28 0.0 0 1 951.75 652.52   Q 950.12 653.66 949.51 654.84   Q 948.55 656.67 947.60 657.40   Q 947.14 657.75 941.85 663.17   Q 940.42 664.63 939.15 665.27   Q 937.87 665.91 936.63 667.65   Q 936.34 668.07 935.84 668.17   Q 934.93 668.35 933.90 669.36   Q 932.72 670.53 932.28 670.82   Q 930.23 672.17 927.67 673.35   Q 927.16 673.58 926.99 673.82   Q 926.80 674.08 926.75 674.18   A 1.09 0.27 -20.7 0 1 926.11 674.63   L 915.34 679.60   Q 918.79 677.18 922.58 675.80   Q 923.06 675.63 923.47 675.58   Q 923.98 675.53 924.30 675.12   Q 924.53 674.82 925.03 674.53   Q 942.38 664.43 954.16 647.95   Q 954.24 648.01 954.32 648.07   Z"></path>
  <path fill="#e8b826" d="   M 750.24 663.34   Q 746.89 661.18 745.15 658.07   Q 748.63 660.22 750.24 663.34   Z"></path>
  <path fill="#0e2cae" d="   M 1459.93 658.42   Q 1458.69 661.89 1454.99 663.45   L 1459.93 658.42   Z"></path>
  <path fill="#e8b826" d="   M 1049.26 660.02   Q 1050.23 662.21 1049.66 665.17   Q 1048.74 662.91 1049.26 660.02   Z"></path>
  <path fill="#e8b826" d="   M 536.53 660.93   Q 537.19 662.98 537.02 665.54   Q 536.98 666.04 537.25 666.48   Q 538.03 667.76 537.80 669.35   Q 537.73 669.85 538.02 670.27   Q 539.03 671.72 538.32 673.56   Q 537.34 669.57 536.26 662.75   Q 536.04 661.42 536.53 660.93   Z"></path>
  <path fill="#e8b826" d="   M 1155.67 661.14   L 1155.37 666.41   Q 1154.88 663.24 1155.67 661.14   Z"></path>
  <path fill="#0e2cae" d="   M 1642.04 661.69   Q 1642.65 661.88 1642.68 662.50   Q 1643.11 672.01 1641.74 681.39   Q 1641.25 670.73 1641.45 662.50   Q 1641.46 662.05 1642.04 661.69   Z"></path>
  <path fill="#0e2cae" d="   M 996.44 679.06   Q 995.98 676.50 995.52 674.01   Q 995.03 671.31 995.03 668.92   Q 995.03 666.10 995.19 663.26   L 996.44 679.06   Z"></path>
  <path fill="#0e2cae" d="   M 1454.69 663.64   L 1451.63 667.01   A 1.34 1.34 0.0 0 1 1450.87 667.43   C 1449.54 667.66 1449.43 668.61 1448.51 669.25   Q 1443.39 672.86 1438.92 675.06   Q 1438.27 675.38 1437.75 675.46   Q 1437.06 675.56 1436.80 676.07   A 0.56 0.56 0.0 0 1 1436.36 676.38   Q 1435.53 676.47 1431.91 678.56   Q 1431.48 678.81 1430.98 678.76   Q 1430.17 678.68 1429.73 679.21   Q 1429.49 679.51 1429.20 679.59   Q 1428.83 679.69 1428.53 679.45   Q 1428.82 679.18 1429.11 678.90   Q 1429.47 678.56 1429.76 678.46   Q 1432.34 677.65 1434.64 676.38   A 0.87 0.86 39.6 0 1 1435.33 676.31   Q 1436.03 676.54 1436.25 675.80   Q 1436.36 675.39 1436.82 675.36   L 1437.25 675.32   Q 1437.73 675.29 1438.20 674.98   Q 1440.82 673.30 1442.25 672.51   Q 1444.69 671.17 1446.34 670.00   Q 1450.58 666.98 1454.69 663.64   Z"></path>
  <path fill="#e8b826" d="   M 1050.18 667.42   Q 1050.91 668.74 1050.46 670.56   Q 1049.47 669.19 1050.18 667.42   Z"></path>
  <path fill="#e8b826" d="   M 482.77 673.35   Q 481.75 671.09 482.33 667.99   Q 483.39 670.31 482.77 673.35   Z"></path>
  <path fill="#0e2cae" d="   M 696.40 669.22   L 695.86 674.01   Q 695.16 670.71 696.40 669.22   Z"></path>
  <path fill="#e8b826" d="   M 1051.05 671.40   Q 1051.67 675.60 1053.63 679.31   Q 1053.87 679.76 1053.83 680.28   Q 1053.78 681.06 1054.63 681.60   A 1.60 1.60 0.0 0 1 1055.22 682.27   L 1057.18 686.43   Q 1057.42 686.92 1057.87 687.24   Q 1059.13 688.14 1059.60 689.62   Q 1059.74 690.07 1060.12 690.33   Q 1062.29 691.81 1062.74 693.99   Q 1054.50 685.46 1050.99 674.24   Q 1050.49 672.65 1051.05 671.40   Z"></path>
  <path fill="#0e2cae" d="   M 1154.30 671.55   Q 1153.76 676.78 1150.55 681.02   L 1152.99 674.18   Q 1153.10 673.88 1153.39 673.77   Q 1153.61 673.67 1153.72 673.39   A 0.56 0.55 49.2 0 0 1153.75 673.07   Q 1153.38 671.49 1154.30 671.55   Z"></path>
  <path fill="#e8b826" d="   M 540.22 678.52   Q 538.78 676.30 538.66 673.60   Q 540.08 675.84 540.22 678.52   Z"></path>
  <path fill="#0e2cae" d="   M 483.67 679.07   Q 482.62 677.42 483.15 674.92   Q 484.26 676.73 483.67 679.07   Z"></path>
  <path fill="#e8b826" d="   M 695.42 676.49   Q 695.92 678.60 694.82 680.25   Q 694.48 678.16 695.42 676.49   Z"></path>
  <path fill="#0e2cae" d="   M 1214.61 681.25   L 1212.53 681.09   Q 1212.03 681.06 1211.63 680.75   Q 1210.70 680.06 1208.90 680.39   Q 1208.51 680.46 1208.49 680.86   Q 1208.44 681.80 1207.77 682.01   Q 1207.29 680.25 1208.27 679.53   Q 1208.96 679.02 1210.28 679.47   Q 1212.54 680.25 1214.61 681.25   Z"></path>
  <path fill="#0e2cae" d="   M 484.67 683.25   Q 483.26 682.14 484.04 679.59   Q 484.99 681.60 484.67 683.25   Z"></path>
  <path fill="#0e2cae" d="   M 1427.68 679.56   Q 1427.26 680.60 1426.39 680.33   Q 1425.94 680.19 1425.52 680.42   Q 1423.55 681.51 1421.35 681.88   Q 1420.80 681.98 1418.72 682.60   Q 1417.47 682.98 1415.92 682.84   L 1427.68 679.56   Z"></path>
  <path fill="#0e2cae" d="   M 1533.35 679.36   Q 1534.55 684.90 1531.92 691.32   Q 1531.92 689.49 1532.55 688.09   Q 1532.75 687.64 1532.79 687.15   L 1533.35 679.36   Z"></path>
  <path fill="#e8b826" d="   M 694.71 681.29   L 694.71 682.54   Q 694.71 683.07 694.38 683.49   Q 693.80 684.23 693.92 685.13   Q 694.03 685.92 693.77 686.85   Q 692.97 689.67 691.76 692.54   L 694.71 681.29   Z"></path>
  <path fill="#e8b826" d="   M 581.98 710.90   Q 575.32 710.26 569.80 707.92   Q 551.15 700.01 541.61 681.61   Q 542.96 682.47 543.62 683.81   Q 544.81 686.24 544.90 686.38   Q 547.00 689.33 548.05 690.33   Q 548.42 690.68 548.43 691.18   Q 548.43 691.50 548.66 691.71   Q 552.18 695.11 556.11 699.14   A 1.47 1.47 0.0 0 0 556.85 699.55   Q 557.90 699.78 558.77 701.01   Q 559.08 701.46 559.58 701.68   Q 560.65 702.16 561.44 702.88   Q 562.16 703.52 563.34 704.07   Q 568.62 706.52 570.00 707.37   Q 571.13 708.06 571.56 707.88   Q 572.14 707.63 572.36 708.08   Q 572.69 708.74 573.91 708.55   A 0.91 0.91 0.0 0 1 574.77 708.90   Q 575.41 709.74 576.78 709.28   Q 577.34 709.09 577.73 709.52   Q 578.62 710.52 581.10 710.04   A 0.66 0.66 0.0 0 1 581.61 710.16   Q 581.99 710.44 581.98 710.90   Z"></path>
  <path fill="#0e2cae" d="   M 1207.49 682.96   L 1204.97 692.06   A 0.54 0.53 80.9 0 1 1204.75 692.36   Q 1204.18 692.75 1204.38 693.82   A 0.94 0.94 0.0 0 1 1204.09 694.70   L 1203.78 694.97   A 0.77 0.76 66.1 0 0 1203.54 695.62   Q 1203.68 696.95 1202.31 698.85   C 1201.78 699.60 1202.00 700.47 1201.56 701.36   Q 1196.95 710.50 1196.74 710.81   Q 1196.42 711.27 1196.04 711.69   Q 1195.72 712.05 1195.56 712.51   Q 1195.15 713.69 1193.97 714.22   Q 1201.06 701.81 1202.54 697.53   Q 1205.02 690.36 1207.49 682.96   Z"></path>
  <path fill="#0e2cae" d="   M 485.29 686.09   Q 484.16 685.71 484.80 683.37   Q 485.76 684.83 485.29 686.09   Z"></path>
  <path fill="#e8b826" d="   M 691.48 693.20   Q 691.01 696.60 689.22 699.25   Q 689.01 699.57 689.04 700.09   Q 689.08 700.58 688.86 701.03   Q 686.87 705.14 684.85 709.10   Q 684.46 709.86 683.57 710.20   L 691.48 693.20   Z"></path>
  <path fill="#e8b826" d="   M 1586.74 693.75   L 1585.91 699.34   Q 1585.84 699.82 1585.61 700.25   Q 1584.98 701.43 1585.12 702.72   A 1.13 1.13 0.0 0 1 1584.82 703.62   Q 1584.07 704.40 1584.39 705.94   Q 1584.50 706.46 1584.06 706.74   Q 1583.43 707.14 1583.53 707.98   A 1.76 1.76 0.0 0 1 1583.37 708.96   C 1582.73 710.28 1582.80 711.13 1582.05 712.26   Q 1581.16 713.60 1581.05 715.01   Q 1581.01 715.51 1580.70 715.91   Q 1579.97 716.84 1579.62 718.24   Q 1579.21 719.83 1578.80 720.59   Q 1576.02 725.76 1572.84 730.69   Q 1572.50 731.22 1572.19 731.51   Q 1571.84 731.84 1571.62 732.27   Q 1569.60 736.36 1565.99 739.20   Q 1572.82 730.48 1574.79 726.80   Q 1581.05 715.10 1582.45 709.94   Q 1584.64 701.91 1586.74 693.75   Z"></path>
  <path fill="#0e2cae" d="   M 1694.56 694.50   Q 1694.53 698.05 1693.02 701.02   L 1694.56 694.50   Z"></path>
  <path fill="#e8b826" d="   M 1082.74 707.49   Q 1073.07 704.00 1065.70 697.03   Q 1067.96 697.64 1069.48 699.65   Q 1069.79 700.05 1070.22 700.30   L 1082.74 707.49   Z"></path>
  <path fill="#0e2cae" d="   M 1135.11 699.77   Q 1134.66 701.28 1133.47 701.04   Q 1134.18 700.00 1135.11 699.77   Z"></path>
  <path fill="#0e2cae" d="   M 1693.02 701.02   Q 1693.21 702.86 1692.30 704.38   Q 1692.04 704.82 1692.16 705.32   Q 1692.46 706.50 1691.69 707.08   Q 1691.26 707.41 1691.37 707.94   Q 1691.55 708.80 1691.15 709.22   Q 1690.69 709.71 1690.67 710.07   Q 1690.63 710.63 1689.91 712.81   Q 1689.39 714.36 1688.92 715.11   Q 1688.45 715.86 1688.27 716.69   Q 1688.01 717.82 1687.78 718.27   Q 1685.79 722.30 1683.84 726.05   Q 1683.61 726.50 1683.20 726.81   Q 1682.66 727.21 1682.56 727.78   Q 1682.47 728.36 1682.10 728.94   Q 1676.08 738.43 1667.99 746.08   Q 1667.65 746.41 1667.42 746.42   Q 1667.23 746.43 1667.06 746.47   Q 1666.72 746.56 1666.47 746.80   Q 1664.10 749.16 1661.35 751.11   Q 1650.35 758.90 1637.75 762.46   Q 1635.38 763.13 1632.99 763.36   Q 1649.42 759.36 1662.77 749.49   Q 1665.43 747.53 1668.60 744.34   Q 1670.74 742.18 1674.05 738.80   Q 1676.21 736.59 1679.66 731.51   Q 1682.28 727.65 1684.29 723.58   Q 1689.73 712.54 1690.33 710.04   Q 1691.44 705.39 1693.02 701.02   Z"></path>
  <path fill="#0e2cae" d="   M 612.88 705.62   Q 612.88 706.76 610.72 706.84   Q 611.62 706.03 612.88 705.62   Z"></path>
  <path fill="#0e2cae" d="   M 1123.08 706.96   Q 1121.03 708.24 1118.65 708.48   Q 1120.70 707.28 1123.08 706.96   Z"></path>
  <path fill="#0e2cae" d="   M 608.11 707.85   Q 608.00 708.83 606.68 708.51   Q 607.37 707.64 608.11 707.85   Z"></path>
  <path fill="#e8b826" d="   M 1097.01 710.89   Q 1091.52 710.75 1086.40 708.67   Q 1087.81 708.31 1088.80 709.08   Q 1089.23 709.42 1089.78 709.34   Q 1091.01 709.16 1091.94 709.92   A 1.11 1.11 0.0 0 0 1092.82 710.16   Q 1095.25 709.76 1097.01 710.89   Z"></path>
  <path fill="#0e2cae" d="   M 1517.99 708.62   Q 1516.22 710.98 1513.52 710.60   L 1517.99 708.62   Z"></path>
  <path fill="#0e2cae" d="   M 602.68 709.48   Q 599.77 710.81 596.71 710.58   Q 597.84 709.97 599.25 710.06   A 1.83 1.82 33.6 0 0 600.19 709.87   Q 601.45 709.24 602.68 709.48   Z"></path>
  <path fill="#0e2cae" d="   M 1111.95 710.26   Q 1110.36 710.89 1109.19 710.34   Q 1110.56 710.02 1111.95 710.26   Z"></path>
  <path fill="#0e2cae" d="   M 1622.42 710.33   L 1619.52 710.88   Q 1620.66 709.72 1622.42 710.33   Z"></path>
  <path fill="#e8b826" d="   M 683.38 710.67   Q 683.64 710.98 683.39 711.42   Q 680.04 717.39 678.74 719.03   Q 676.56 721.76 676.56 721.76   Q 676.24 722.81 674.51 724.32   Q 673.75 724.97 673.14 726.12   Q 672.59 727.15 671.82 727.90   Q 668.44 731.18 665.10 734.45   Q 665.11 734.40 665.11 734.35   Q 665.11 734.24 665.19 734.16   Q 674.77 724.24 677.88 719.12   Q 680.50 714.82 683.38 710.67   Z"></path>
  <path fill="#e8b826" d="   M 594.71 711.06   Q 588.61 712.13 582.54 711.04   L 594.71 711.06   Z"></path>
  <path fill="#0e2cae" d="   M 918.20 711.82   L 828.95 711.82   Q 829.12 711.39 829.41 711.15   Q 829.65 710.95 830.15 710.95   Q 873.45 710.93 916.75 710.90   Q 917.68 710.90 918.20 711.82   Z"></path>
  <path fill="#e8b826" d="   M 1431.55 711.67   L 1340.79 711.81   Q 1341.05 711.42 1341.39 711.17   Q 1341.68 710.94 1342.19 710.94   Q 1386.47 710.93 1430.75 710.96   Q 1431.21 710.96 1431.55 711.67   Z"></path>
  <path fill="#181819" d="   M 918.20 711.82   L 920.85 711.81   Q 921.37 711.80 921.75 712.16   Q 922.34 712.71 923.23 712.57   A 1.33 1.33 0.0 0 1 924.20 712.80   L 929.74 716.69   L 937.63 725.04   L 938.42 726.38   Q 938.69 726.85 938.68 727.38   Q 938.66 728.16 939.20 728.71   A 1.05 1.05 0.0 0 1 939.50 729.52   Q 939.39 731.21 939.76 732.09   Q 940.24 733.24 940.25 734.54   Q 940.39 753.96 940.26 770.22   Q 940.25 771.85 939.79 772.70   C 939.31 773.59 939.61 774.88 938.88 776.01   Q 938.09 777.23 937.39 778.76   Q 936.58 780.55 935.84 781.49   Q 925.68 794.27 909.02 792.12   Q 903.97 791.47 898.60 788.18   Q 896.79 787.08 896.27 786.50   Q 894.99 785.09 892.04 782.36   Q 891.39 781.76 891.13 780.92   C 890.84 780.00 890.12 779.76 889.68 778.89   Q 889.01 777.55 888.64 776.39   Q 888.34 773.61 887.02 770.81   Q 886.27 770.31 886.42 769.13   Q 886.61 767.62 886.07 766.52   Q 886.52 765.95 886.16 765.46   Q 885.94 765.17 885.39 765.06   Q 884.47 764.87 883.52 764.87   Q 861.94 765.04 836.75 764.96   Q 835.71 764.95 834.70 765.05   L 826.94 764.93   Q 820.68 763.17 818.00 761.24   Q 812.98 757.61 808.08 749.63   Q 806.84 748.26 806.32 746.34   Q 806.93 745.42 805.80 743.55   Q 805.52 743.22 805.29 742.84   Q 805.03 742.43 805.04 742.02   Q 805.08 737.94 805.05 733.85   Q 805.04 733.34 805.33 732.93   Q 805.97 732.01 805.85 731.18   Q 805.77 730.66 806.18 730.33   Q 806.76 729.85 806.71 729.21   Q 806.66 728.71 806.87 728.25   Q 808.81 723.86 811.95 720.33   Q 813.68 719.49 814.77 717.79   L 822.38 712.68   Q 822.82 712.38 823.33 712.53   Q 824.00 712.73 824.29 712.26   Q 824.56 711.81 825.08 711.81   L 828.95 711.82   L 918.20 711.82   Z"></path>
  <path fill="#181819" d="   M 1431.55 711.67   L 1433.83 711.83   Q 1434.30 711.86 1434.61 712.22   Q 1435.01 712.67 1435.65 712.57   Q 1436.13 712.49 1436.56 712.73   L 1440.27 714.78   Q 1449.20 720.75 1452.25 730.95   L 1452.52 731.95   Q 1452.87 738.25 1452.79 740.25   Q 1452.63 744.90 1450.64 750.46   Q 1450.40 751.35 1449.94 751.45   Q 1447.40 755.89 1443.85 759.16   Q 1443.73 759.46 1443.47 759.51   Q 1438.17 763.08 1431.38 764.86   L 1429.98 764.94   Q 1388.25 764.83 1346.53 764.94   Q 1339.48 764.96 1336.68 763.99   Q 1331.79 762.29 1327.62 759.19   Q 1326.41 758.29 1324.71 756.14   Q 1323.43 754.52 1322.10 752.91   Q 1321.78 752.74 1321.78 752.24   L 1319.57 747.24   Q 1318.33 745.62 1318.75 743.01   Q 1318.89 742.14 1318.25 741.53   Q 1317.90 741.19 1317.84 740.70   Q 1317.36 736.91 1318.73 734.21   L 1320.88 726.03   Q 1321.08 725.62 1321.29 725.50   Q 1322.25 724.05 1323.20 722.59   Q 1324.21 721.03 1325.39 719.94   Q 1329.39 716.24 1334.10 713.44   Q 1334.95 712.29 1336.61 712.64   Q 1338.29 712.62 1339.78 711.91   Q 1340.27 711.71 1340.79 711.81   L 1431.55 711.67   Z"></path>
  <path fill="#0e2cae" d="   M 1339.78 711.91   Q 1338.29 712.62 1336.61 712.64   Q 1337.78 711.31 1339.78 711.91   Z"></path>
  <path fill="#0e2cae" d="   M 1334.10 713.44   Q 1329.39 716.24 1325.39 719.94   Q 1324.21 721.03 1323.20 722.59   Q 1322.25 724.05 1321.29 725.50   Q 1321.67 723.42 1323.17 722.10   Q 1323.43 721.87 1323.49 721.62   L 1323.63 721.02   Q 1323.70 720.75 1324.01 720.46   Q 1326.65 717.99 1327.54 716.90   Q 1328.23 716.06 1329.42 715.71   Q 1329.51 715.69 1331.35 714.70   Q 1331.78 714.47 1332.06 714.07   Q 1332.69 713.11 1334.10 713.44   Z"></path>
  <path fill="#0e2cae" d="   M 1603.11 713.80   Q 1601.53 715.09 1599.83 716.24   Q 1597.87 717.57 1596.66 718.80   Q 1593.84 721.68 1591.21 724.80   Q 1591.55 723.09 1593.13 721.88   Q 1593.52 721.58 1593.71 721.12   Q 1594.40 719.40 1595.91 718.52   Q 1596.83 717.97 1598.55 716.39   Q 1600.47 714.62 1603.11 713.80   Z"></path>
  <path fill="#e8b826" d="   M 1193.97 714.22   Q 1193.61 715.81 1192.74 717.24   C 1192.09 718.30 1190.77 718.76 1190.51 720.11   Q 1190.41 720.60 1189.98 720.86   Q 1189.32 721.24 1189.06 722.37   Q 1188.95 722.86 1188.57 723.19   Q 1187.06 724.50 1186.18 725.79   Q 1184.87 727.71 1184.06 728.49   Q 1182.10 730.39 1172.77 739.74   Q 1172.33 740.17 1171.21 740.12   Q 1181.02 731.67 1188.89 721.47   Q 1189.75 720.36 1191.39 717.83   Q 1192.61 715.96 1193.97 714.22   Z"></path>
  <path fill="#0e2cae" d="   M 1452.25 730.95   Q 1449.20 720.75 1440.27 714.78   Q 1445.18 716.85 1447.30 720.18   Q 1448.70 722.38 1449.37 723.31   Q 1451.86 726.80 1452.25 730.95   Z"></path>
  <path fill="#0e2cae" d="   M 937.63 725.04   L 929.74 716.69   Q 934.99 720.13 937.63 725.04   Z"></path>
  <path fill="#0e2cae" d="   M 814.77 717.79   Q 813.68 719.49 811.95 720.33   Q 812.68 718.30 814.77 717.79   Z"></path>
  <path fill="#0e2cae" d="   M 1489.10 717.92   L 1483.74 724.06   Q 1486.10 719.58 1489.10 717.92   Z"></path>
  <path fill="#0e2cae" d="   M 1030.82 738.26   Q 1030.66 738.32 1030.49 738.33   Q 1030.05 738.35 1029.74 738.04   Q 1025.96 734.20 1022.08 730.42   Q 1021.12 729.49 1020.98 728.99   C 1020.77 728.23 1020.26 727.52 1019.61 727.07   Q 1017.65 725.71 1017.15 723.77   L 1030.59 737.68   A 0.60 0.60 0.0 0 1 1030.75 737.99   Q 1030.78 738.14 1030.82 738.26   Z"></path>
  <path fill="#0e2cae" d="   M 1589.19 729.71   Q 1589.34 727.34 1590.99 725.47   L 1589.19 729.71   Z"></path>
  <path fill="#0e2cae" d="   M 1320.88 726.03   L 1318.73 734.21   L 1318.73 730.94   Q 1318.73 730.42 1319.15 730.12   Q 1319.68 729.74 1319.53 729.09   A 1.34 1.33 53.6 0 1 1319.68 728.13   L 1320.88 726.03   Z"></path>
  <path fill="#0e2cae" d="   M 1481.66 728.04   Q 1481.61 728.63 1481.32 729.23   Q 1481.17 728.41 1481.66 728.04   Z"></path>
  <path fill="#0e2cae" d="   M 1589.06 730.95   Q 1589.02 731.99 1588.43 733.21   Q 1588.00 731.22 1589.06 730.95   Z"></path>
  <path fill="#e8b826" d="   M 1450.64 750.46   Q 1452.63 744.90 1452.79 740.25   Q 1452.87 738.25 1452.52 731.95   Q 1452.66 731.99 1452.78 732.05   Q 1453.05 732.18 1453.06 732.49   Q 1453.15 738.12 1453.04 743.74   Q 1453.00 746.26 1450.64 750.46   Z"></path>
  <path fill="#0e2cae" d="   M 664.72 734.72   Q 662.76 736.95 660.69 739.09   Q 659.43 740.39 658.34 740.87   Q 656.95 741.49 656.16 742.86   A 1.45 1.45 0.0 0 1 655.43 743.49   Q 653.23 744.34 652.27 745.91   Q 652.00 746.34 651.55 746.38   L 651.19 746.42   Q 650.64 746.47 650.32 746.98   Q 649.81 747.79 648.83 747.95   Q 648.33 748.03 648.00 748.43   Q 646.80 749.92 644.99 750.24   A 1.96 1.95 -69.3 0 0 644.10 750.64   Q 639.84 754.05 634.72 755.31   Q 637.41 753.65 640.17 752.30   Q 643.82 750.51 645.63 749.34   Q 655.75 742.79 664.72 734.72   Z"></path>
  <path fill="#0e2cae" d="   M 1565.99 739.20   C 1565.89 739.86 1565.78 740.46 1565.27 740.96   Q 1561.17 744.95 1560.88 745.31   Q 1559.83 746.64 1558.31 747.31   C 1556.86 747.94 1556.06 750.10 1554.35 750.46   Q 1553.86 750.56 1553.54 750.96   Q 1551.83 753.10 1549.35 753.67   A 1.24 0.89 0.6 0 0 1548.56 754.23   Q 1548.52 754.33 1548.45 754.52   Q 1548.32 754.91 1547.95 755.06   L 1543.00 757.11   Q 1553.67 751.54 1562.03 743.03   Q 1563.98 741.04 1565.99 739.20   Z"></path>
  <path fill="#0e2cae" d="   M 1170.72 740.66   Q 1169.58 742.92 1167.20 743.50   L 1170.72 740.66   Z"></path>
  <path fill="#0e2cae" d="   M 806.32 746.34   Q 805.61 745.44 805.80 743.55   Q 806.93 745.42 806.32 746.34   Z"></path>
  <path fill="#0e2cae" d="   M 1167.20 743.50   Q 1165.76 745.79 1164.17 745.69   L 1167.20 743.50   Z"></path>
  <path fill="#0e2cae" d="   M 1164.17 745.69   C 1163.54 746.89 1162.75 746.93 1161.93 747.51   Q 1160.33 748.67 1159.31 749.37   Q 1157.96 750.29 1156.55 750.95   Q 1154.09 752.10 1152.70 752.86   Q 1150.94 753.83 1148.18 755.12   Q 1144.53 756.84 1143.63 757.53   Q 1143.20 757.87 1142.68 757.71   Q 1142.11 757.54 1141.64 758.08   Q 1141.35 758.43 1141.01 758.47   Q 1140.63 758.52 1140.22 758.29   Q 1143.30 756.64 1146.52 755.31   Q 1150.53 753.64 1152.79 752.37   Q 1158.54 749.15 1164.17 745.69   Z"></path>
  <path fill="#0e2cae" d="   M 1482.02 748.19   Q 1480.77 747.34 1481.38 746.39   L 1482.02 748.19   Z"></path>
  <path fill="#0e2cae" d="   M 1591.46 752.11   Q 1589.56 749.74 1589.17 746.96   Q 1590.78 749.39 1591.46 752.11   Z"></path>
  <path fill="#0e2cae" d="   M 1321.78 752.24   Q 1320.31 751.33 1320.18 749.79   A 1.71 1.71 0.0 0 0 1319.85 748.92   Q 1319.32 748.19 1319.57 747.24   L 1321.78 752.24   Z"></path>
  <path fill="#0e2cae" d="   M 1484.27 752.80   Q 1482.16 751.32 1482.15 748.58   Q 1483.80 750.34 1484.27 752.80   Z"></path>
  <path fill="#0e2cae" d="   M 826.94 764.93   Q 821.17 764.86 817.60 761.62   Q 812.91 757.37 811.08 755.17   Q 809.34 753.08 808.08 749.63   Q 812.98 757.61 818.00 761.24   Q 820.68 763.17 826.94 764.93   Z"></path>
  <path fill="#e8b826" d="   M 1449.94 751.45   Q 1449.22 754.09 1447.34 755.91   Q 1446.99 756.25 1446.78 756.70   Q 1445.97 758.50 1443.85 759.16   Q 1447.40 755.89 1449.94 751.45   Z"></path>
  <path fill="#e8b826" d="   M 1429.98 764.94   Q 1429.80 765.29 1429.49 765.52   Q 1429.25 765.70 1428.82 765.70   Q 1382.19 765.72 1341.43 765.69   Q 1340.94 765.69 1340.53 765.40   Q 1339.53 764.68 1338.28 764.90   Q 1337.77 764.98 1337.29 764.83   Q 1335.05 764.14 1332.05 762.75   Q 1330.75 762.14 1330.24 761.58   Q 1329.53 760.78 1328.79 760.67   A 1.24 1.24 0.0 0 1 1328.04 760.27   Q 1325.76 757.72 1323.18 755.31   Q 1322.65 754.81 1322.10 752.91   Q 1323.43 754.52 1324.71 756.14   Q 1326.41 758.29 1327.62 759.19   Q 1331.79 762.29 1336.68 763.99   Q 1339.48 764.96 1346.53 764.94   Q 1388.25 764.83 1429.98 764.94   Z"></path>
  <path fill="#0e2cae" d="   M 1493.85 762.26   Q 1487.12 759.31 1484.46 753.20   Q 1488.25 758.34 1493.48 761.55   Q 1493.74 761.71 1493.85 762.26   Z"></path>
  <path fill="#0e2cae" d="   M 560.74 761.75   Q 558.31 761.44 556.00 760.30   A 2.08 2.07 -32.0 0 0 555.07 760.09   Q 554.26 760.10 553.70 759.52   Q 553.33 759.14 552.92 759.17   L 552.35 759.21   Q 552.02 759.23 551.55 759.00   L 541.99 754.27   Q 551.31 758.23 560.74 761.28   Q 561.01 761.37 560.74 761.75   Z"></path>
  <path fill="#0e2cae" d="   M 634.25 755.63   Q 631.23 757.55 627.69 758.31   L 633.90 755.42   Q 634.01 755.37 634.12 755.41   Q 634.31 755.48 634.25 755.63   Z"></path>
  <path fill="#0e2cae" d="   M 1607.53 764.37   Q 1603.62 763.68 1599.98 761.54   Q 1599.34 761.16 1598.14 759.80   Q 1597.81 759.43 1597.35 759.26   Q 1594.80 758.30 1593.89 755.49   Q 1595.92 756.88 1597.55 758.63   Q 1598.87 760.05 1599.93 760.53   Q 1601.03 761.03 1601.93 761.84   Q 1602.25 762.12 1602.67 762.20   Q 1605.43 762.72 1607.53 764.37   Z"></path>
  <path fill="#0e2cae" d="   M 1540.56 758.20   Q 1539.09 760.02 1536.77 760.12   Q 1536.26 760.14 1535.92 760.52   Q 1535.53 760.97 1534.92 760.92   Q 1534.51 760.88 1534.13 761.01   L 1530.04 762.47   L 1540.56 758.20   Z"></path>
  <path fill="#0e2cae" d="   M 1139.30 758.67   Q 1137.24 760.41 1135.25 759.97   Q 1135.91 759.02 1137.47 758.98   A 1.34 1.34 0.0 0 0 1138.32 758.66   Q 1138.91 758.15 1139.30 758.67   Z"></path>
  <path fill="#e8b826" d="   M 1443.47 759.51   Q 1442.48 760.95 1440.36 762.10   Q 1435.55 764.72 1431.38 764.86   Q 1438.17 763.08 1443.47 759.51   Z"></path>
  <path fill="#0e2cae" d="   M 1075.04 761.67   Q 1072.36 761.75 1069.90 760.36   Q 1072.55 760.27 1075.04 761.67   Z"></path>
  <path fill="#0e2cae" d="   M 579.07 764.70   Q 577.65 764.96 576.27 764.95   Q 575.53 764.95 573.59 764.34   Q 572.16 763.89 570.45 764.17   Q 569.86 764.26 569.42 763.86   Q 568.40 762.91 566.14 763.38   A 0.93 0.75 60.5 0 1 565.34 763.07   L 565.07 762.76   Q 564.68 762.32 564.20 762.43   Q 562.46 762.82 561.78 761.87   L 579.07 764.70   Z"></path>
  <path fill="#0e2cae" d="   M 1503.22 764.84   Q 1501.16 765.25 1499.50 764.38   A 2.12 2.11 59.6 0 0 1498.57 764.13   Q 1496.27 764.08 1494.45 762.45   Q 1494.44 762.23 1494.62 762.16   Q 1494.71 762.12 1494.91 762.19   Q 1497.11 762.91 1499.30 763.71   C 1500.51 764.15 1501.97 763.92 1503.22 764.84   Z"></path>
  <path fill="#0e2cae" d="   M 1529.20 762.54   Q 1528.44 763.74 1526.24 763.12   Q 1527.58 762.46 1529.20 762.54   Z"></path>
  <path fill="#0e2cae" d="   M 1094.00 764.80   Q 1090.53 765.33 1087.48 764.22   Q 1087.02 764.06 1086.53 764.13   Q 1083.85 764.51 1082.37 763.27   L 1094.00 764.80   Z"></path>
  <path fill="#0e2cae" d="   M 1121.38 763.51   Q 1119.96 764.13 1118.30 764.20   Q 1116.85 764.27 1115.28 764.67   Q 1113.16 765.21 1110.69 764.79   L 1121.38 763.51   Z"></path>
  <path fill="#e8b826" d="   M 1525.53 763.82   Q 1524.55 764.19 1523.24 764.11   Q 1522.75 764.09 1522.29 764.28   Q 1519.98 765.24 1517.41 764.82   Q 1521.41 763.84 1525.42 763.42   Q 1525.61 763.40 1525.53 763.82   Z"></path>
  <path fill="#0e2cae" d="   M 608.71 763.58   L 598.31 764.99   L 608.71 763.58   Z"></path>
  <path fill="#0e2cae" d="   M 1632.78 763.59   L 1624.76 764.93   L 1632.78 763.59   Z"></path>
  <path fill="#e8b826" d="   M 595.15 765.25   Q 588.85 766.44 582.65 765.22   Q 588.88 764.44 595.15 765.25   Z"></path>
  <path fill="#e8b826" d="   M 1514.66 765.16   Q 1509.57 766.67 1504.69 765.01   L 1514.66 765.16   Z"></path>
  <path fill="#0e2cae" d="   M 1623.04 765.00   Q 1622.68 765.69 1622.23 765.73   Q 1617.13 766.16 1611.43 765.18   L 1623.04 765.00   Z"></path>
  <path fill="#e8b826" d="   M 886.07 766.52   Q 885.32 765.71 884.75 765.71   Q 860.29 765.68 835.84 765.72   Q 835.43 765.72 835.19 765.57   Q 834.90 765.38 834.70 765.05   Q 835.71 764.95 836.75 764.96   Q 861.94 765.04 883.52 764.87   Q 884.47 764.87 885.39 765.06   Q 885.94 765.17 886.16 765.46   Q 886.52 765.95 886.07 766.52   Z"></path>
  <path fill="#0e2cae" d="   M 1105.62 765.12   Q 1102.11 766.60 1098.68 765.15   L 1105.62 765.12   Z"></path>
  <path fill="#0e2cae" d="   M 888.64 776.39   Q 887.15 773.69 887.02 770.81   Q 888.34 773.61 888.64 776.39   Z"></path>
</svg>
